<?xml version="1.0" standalone="no"?>
<!DOCTYPE svg PUBLIC "-//W3C//DTD SVG 20010904//EN"
 "http://www.w3.org/TR/2001/REC-SVG-20010904/DTD/svg10.dtd">
<svg version="1.0" xmlns="http://www.w3.org/2000/svg"
 width="560.000000pt" height="420.000000pt" viewBox="0 0 560.000000 420.000000"
 preserveAspectRatio="xMidYMid meet">

<g transform="translate(0.000000,420.000000) scale(0.100000,-0.100000)"
fill="#000000" stroke="none">
<path d="M477 3913 c22 -4 22 -6 7 -34 -8 -17 -14 -34 -12 -38 2 -4 12 12 24
36 l21 43 -31 -1 c-23 -1 -25 -3 -9 -6z"/>
<path d="M537 3914 c-4 -4 -7 -22 -7 -41 0 -39 26 -56 45 -29 24 32 -11 96
-38 70z m33 -39 c0 -24 -5 -35 -15 -35 -10 0 -15 11 -15 35 0 24 5 35 15 35
10 0 15 -11 15 -35z"/>
<path d="M614 3906 c-3 -8 -4 -27 -2 -43 2 -20 9 -28 23 -28 20 0 35 36 27 68
-5 20 -40 23 -48 3z m38 -8 c8 -22 -4 -58 -18 -58 -9 0 -14 12 -14 35 0 34 23
51 32 23z"/>
<path d="M730 2279 c0 -1501 1 -1609 17 -1594 14 14 14 18 2 26 -12 7 -12 9 1
9 12 0 13 2 1 9 -11 7 -11 9 0 14 12 4 11 7 -1 16 -10 7 -11 11 -2 11 6 0 12
6 12 14 0 8 -6 17 -12 19 -10 4 -10 6 0 6 15 1 17 87 2 96 -6 4 -4 12 5 21 19
20 19 60 0 68 -8 3 -14 13 -14 23 1 17 2 17 6 0 7 -27 20 -20 27 14 9 47 7 59
-8 59 -23 0 -28 17 -11 33 17 18 20 47 4 47 -6 0 -8 -7 -5 -16 3 -8 2 -12 -4
-9 -6 3 -10 28 -10 55 0 43 2 48 19 45 16 -3 19 1 16 23 -4 37 -3 36 -18 23
-11 -8 -14 -1 -16 39 -1 33 2 50 10 50 8 0 8 4 -1 15 -10 12 -10 15 4 15 19 0
22 20 4 20 -7 0 -5 5 5 11 14 8 15 14 6 31 -8 15 -8 22 1 28 8 5 5 9 -9 13
-18 4 -21 12 -20 49 2 29 3 34 6 16 2 -16 11 -28 19 -28 21 0 17 43 -6 58 -19
11 -20 23 -20 161 0 134 2 150 18 154 16 4 16 5 0 6 -17 1 -18 20 -18 240 l0
240 23 4 22 4 -22 2 -23 1 0 239 0 240 23 4 22 4 -22 2 -23 1 0 239 c0 220 1
240 18 244 16 4 16 5 0 6 -17 1 -18 20 -18 241 l0 240 354 0 c329 0 355 -1
359 -17 4 -17 5 -17 6 0 1 16 25 17 355 17 329 0 355 -1 359 -17 4 -17 5 -17
6 0 1 16 25 17 360 17 334 0 360 -1 364 -17 4 -17 5 -17 6 0 1 16 25 17 355
17 329 0 355 -1 359 -17 4 -17 5 -17 6 0 1 16 25 17 355 17 329 0 355 -1 359
-17 4 -17 5 -17 6 0 1 16 25 17 356 17 l355 0 0 -239 c0 -220 -1 -240 -17
-244 -17 -4 -17 -5 0 -6 16 -1 17 -20 17 -240 0 -220 -1 -240 -17 -244 -17 -4
-17 -5 0 -6 16 -1 17 -20 17 -240 0 -220 -1 -240 -17 -244 -17 -4 -17 -5 0 -6
16 -1 17 -20 17 -240 0 -220 -1 -240 -17 -244 -17 -4 -17 -5 0 -6 16 -1 17
-20 17 -240 0 -220 -1 -240 -17 -244 -17 -4 -17 -5 0 -6 16 -1 17 -20 17 -240
0 -220 -1 -240 -17 -244 -17 -4 -17 -5 0 -6 16 -1 17 -19 17 -236 l0 -235
-354 0 c-329 0 -355 1 -359 18 -4 16 -5 16 -6 0 -1 -17 -25 -18 -355 -18 -329
0 -355 1 -359 17 -4 17 -5 17 -6 1 -1 -17 -25 -18 -355 -18 -329 0 -355 1
-359 17 -4 17 -5 17 -6 1 -1 -17 -25 -18 -360 -18 -334 0 -360 1 -364 18 -4
16 -5 16 -6 0 -1 -13 -10 -18 -31 -18 -16 0 -30 4 -30 9 0 16 -40 19 -55 4 -8
-8 -15 -10 -15 -4 0 6 -4 11 -10 11 -5 0 -10 -7 -10 -15 0 -13 182 -15 1525
-15 l1525 0 0 1715 0 1715 -2170 0 -2170 0 0 -1611z m17 -1221 c-3 -8 -6 -5
-6 6 -1 11 2 17 5 13 3 -3 4 -12 1 -19z m8 -97 c3 -5 1 -12 -5 -16 -5 -3 -10
1 -10 9 0 18 6 21 15 7z"/>
<path d="M2554 3856 c-5 -14 -9 -15 -15 -4 -6 9 -9 3 -9 -19 0 -26 -3 -30 -20
-26 -11 3 -20 0 -20 -6 0 -12 14 -14 48 -5 12 4 22 11 21 18 -1 6 1 19 6 29 4
10 5 21 1 24 -3 3 -9 -2 -12 -11z"/>
<path d="M2606 3861 c-4 -7 -5 -15 -2 -18 9 -9 19 4 14 18 -4 11 -6 11 -12 0z"/>
<path d="M2656 3863 c-12 -12 -6 -25 8 -20 8 3 17 1 20 -6 2 -7 5 -5 5 4 1 17
-22 32 -33 22z"/>
<path d="M2706 3855 c-4 -10 1 -15 14 -15 13 0 18 5 14 15 -4 8 -10 15 -14 15
-4 0 -10 -7 -14 -15z"/>
<path d="M2760 3850 c0 -5 5 -10 10 -10 6 0 10 5 10 10 0 6 -4 10 -10 10 -5 0
-10 -4 -10 -10z"/>
<path d="M2800 3832 c-19 -20 -21 -62 -3 -62 7 0 13 7 13 15 0 8 -5 15 -12 15
-6 0 -4 6 6 13 11 8 17 19 15 24 -2 7 -10 5 -19 -5z"/>
<path d="M2393 3796 c3 -8 1 -16 -5 -18 -15 -5 -2 -38 14 -37 10 0 10 2 1 6
-7 2 -13 9 -13 14 0 4 7 6 15 3 8 -4 15 -2 15 4 0 6 3 19 6 29 5 15 4 15 -5 3
-7 -10 -11 -11 -11 -2 0 6 -5 12 -11 12 -6 0 -9 -6 -6 -14z"/>
<path d="M2440 3800 c0 -5 7 -10 15 -10 8 0 15 5 15 10 0 6 -7 10 -15 10 -8 0
-15 -4 -15 -10z"/>
<path d="M2788 3753 c7 -3 16 -2 19 1 4 3 -2 6 -13 5 -11 0 -14 -3 -6 -6z"/>
<path d="M2787 3721 c3 -13 13 -21 27 -21 15 0 17 3 8 9 -8 4 -13 12 -12 17 0
5 -6 10 -14 12 -10 2 -13 -3 -9 -17z"/>
<path d="M3093 3718 c2 -7 10 -13 17 -13 7 0 15 6 18 13 2 7 -5 12 -18 12 -13
0 -20 -5 -17 -12z"/>
<path d="M3150 3710 c0 -17 5 -19 25 -14 21 5 25 3 25 -15 0 -12 6 -21 13 -21
7 -1 5 -6 -5 -14 -21 -15 -24 -42 -5 -49 10 -4 10 -6 0 -6 -7 -1 -13 -6 -13
-11 0 -7 6 -7 20 0 17 9 20 21 20 77 0 51 -3 63 -13 55 -8 -7 -18 -6 -31 4
-27 19 -36 18 -36 -6z"/>
<path d="M2851 3711 c-8 -6 -9 -11 -3 -15 6 -3 14 -1 17 5 9 14 2 20 -14 10z"/>
<path d="M2386 3644 c-4 -12 -2 -15 9 -10 8 3 15 1 15 -4 0 -6 9 -10 20 -10
13 0 20 6 19 18 0 10 -3 12 -6 5 -3 -10 -8 -9 -20 2 -19 19 -29 19 -37 -1z"/>
<path d="M2460 3635 c0 -8 5 -15 10 -15 6 0 10 7 10 15 0 8 -4 15 -10 15 -5 0
-10 -7 -10 -15z"/>
<path d="M2491 3634 c0 -11 3 -14 6 -6 3 7 2 16 -1 19 -3 4 -6 -2 -5 -13z"/>
<path d="M2510 3636 c0 -9 9 -14 20 -13 24 2 26 13 4 21 -22 8 -24 8 -24 -8z"/>
<path d="M3209 3565 c-1 -3 -2 -9 -3 -14 0 -5 -4 -13 -8 -17 -14 -14 -8 -22
12 -17 21 5 30 53 10 53 -5 0 -11 -2 -11 -5z"/>
<path d="M2510 3510 c0 -5 4 -10 9 -10 5 0 7 -10 4 -21 -4 -16 -2 -20 8 -17 8
2 15 17 17 31 3 22 -1 27 -17 27 -12 0 -21 -4 -21 -10z"/>
<path d="M3195 3501 c-3 -7 2 -11 14 -11 12 0 21 -7 21 -15 0 -8 5 -15 10 -15
6 0 10 9 10 20 0 11 -4 20 -9 20 -5 0 -16 3 -24 6 -8 3 -18 1 -22 -5z"/>
<path d="M3476 3494 c-19 -19 -11 -37 13 -29 10 3 47 6 84 6 55 1 67 4 66 18
0 10 -2 11 -6 4 -2 -7 -9 -13 -14 -13 -6 0 -7 5 -4 10 4 6 -5 10 -19 10 -14 0
-26 -6 -26 -12 0 -9 -4 -8 -10 2 -8 12 -12 13 -19 2 -7 -11 -9 -11 -14 2 -8
20 -31 20 -51 0z"/>
<path d="M3665 3488 c4 -9 29 -13 73 -14 37 -1 57 1 45 3 -13 2 -23 9 -23 14
0 14 -27 11 -34 -3 -5 -10 -7 -10 -12 0 -3 6 -16 12 -30 12 -15 0 -22 -5 -19
-12z"/>
<path d="M3400 3475 c0 -9 9 -15 25 -15 16 0 25 6 25 15 0 9 -9 15 -25 15 -16
0 -25 -6 -25 -15z"/>
<path d="M3860 3482 c0 -5 6 -12 13 -15 9 -3 12 -16 9 -37 -5 -38 8 -50 56
-50 23 0 32 5 32 16 0 12 -7 14 -30 9 -32 -7 -36 0 -31 53 1 12 -3 22 -8 22
-5 0 -16 3 -25 6 -9 3 -16 2 -16 -4z"/>
<path d="M4030 3472 c0 -7 -7 -12 -15 -12 -8 0 -15 -4 -15 -8 0 -5 7 -9 15 -9
15 0 30 26 20 35 -3 3 -5 0 -5 -6z"/>
<path d="M4050 3470 c0 -5 5 -10 10 -10 6 0 10 5 10 10 0 6 -4 10 -10 10 -5 0
-10 -4 -10 -10z"/>
<path d="M4120 3470 c0 -5 5 -10 10 -10 6 0 10 5 10 10 0 6 -4 10 -10 10 -5 0
-10 -4 -10 -10z"/>
<path d="M4170 3470 c0 -5 5 -10 10 -10 6 0 10 5 10 10 0 6 -4 10 -10 10 -5 0
-10 -4 -10 -10z"/>
<path d="M4220 3470 c0 -5 5 -10 10 -10 6 0 10 5 10 10 0 6 -4 10 -10 10 -5 0
-10 -4 -10 -10z"/>
<path d="M4270 3470 c0 -13 28 -25 38 -16 3 4 0 11 -8 16 -20 13 -30 12 -30 0z"/>
<path d="M4326 3463 c-4 -9 4 -13 24 -13 21 0 28 4 24 14 -7 18 -42 17 -48 -1z"/>
<path d="M4444 3469 c-3 -6 -1 -15 6 -19 6 -4 11 -10 11 -14 -3 -21 0 -36 7
-36 5 0 9 18 10 40 1 29 -2 40 -12 40 -8 0 -18 -5 -22 -11z"/>
<path d="M3178 3449 c-22 -12 -25 -54 -4 -46 8 3 20 -1 27 -9 10 -12 10 -15
-1 -12 -7 2 -15 -3 -18 -11 -3 -10 0 -12 10 -8 9 3 21 0 28 -6 9 -9 11 -7 9 8
-2 11 0 26 5 34 6 9 5 12 -1 8 -6 -4 -13 0 -16 8 -4 8 2 17 15 21 16 5 18 8 7
15 -18 11 -40 11 -61 -2z"/>
<path d="M1470 3439 c0 -6 -9 -9 -19 -6 -14 3 -18 1 -14 -9 6 -17 13 -17 36 0
19 15 22 26 7 26 -5 0 -10 -5 -10 -11z"/>
<path d="M1540 3436 c0 -9 7 -12 20 -9 11 3 20 9 20 14 0 5 -9 9 -20 9 -11 0
-20 -6 -20 -14z"/>
<path d="M1592 3439 c2 -6 8 -10 13 -10 5 0 11 4 13 10 2 6 -4 11 -13 11 -9 0
-15 -5 -13 -11z"/>
<path d="M1640 3438 c0 -9 16 -14 46 -15 59 -2 55 21 -4 25 -30 2 -42 -1 -42
-10z"/>
<path d="M1741 3434 c0 -11 3 -14 6 -6 3 7 2 16 -1 19 -3 4 -6 -2 -5 -13z"/>
<path d="M1760 3441 c0 -6 5 -13 10 -16 6 -3 10 1 10 9 0 9 -4 16 -10 16 -5 0
-10 -4 -10 -9z"/>
<path d="M1816 3441 c-4 -5 -2 -12 3 -15 5 -4 12 -2 15 3 4 5 2 12 -3 15 -5 4
-12 2 -15 -3z"/>
<path d="M1870 3434 c0 -8 5 -12 10 -9 6 4 8 11 5 16 -9 14 -15 11 -15 -7z"/>
<path d="M1970 3440 c0 -6 -5 -8 -12 -4 -7 4 -8 3 -4 -4 9 -14 36 -16 36 -3 0
6 -4 13 -10 16 -5 3 -10 1 -10 -5z"/>
<path d="M2070 3436 c0 -9 5 -16 10 -16 6 0 10 4 10 9 0 6 -4 13 -10 16 -5 3
-10 -1 -10 -9z"/>
<path d="M2120 3436 c0 -9 5 -16 10 -16 6 0 10 4 10 9 0 6 -4 13 -10 16 -5 3
-10 -1 -10 -9z"/>
<path d="M1900 3428 c0 -4 9 -8 20 -8 11 0 20 4 20 9 0 6 -9 9 -20 8 -11 -1
-20 -5 -20 -9z"/>
<path d="M2020 3429 c0 -5 5 -7 10 -4 6 3 10 8 10 11 0 2 -4 4 -10 4 -5 0 -10
-5 -10 -11z"/>
<path d="M2220 3425 c0 -8 5 -15 10 -15 6 0 10 7 10 15 0 8 -4 15 -10 15 -5 0
-10 -7 -10 -15z"/>
<path d="M2270 3431 c0 -6 5 -13 10 -16 6 -3 10 1 10 9 0 9 -4 16 -10 16 -5 0
-10 -4 -10 -9z"/>
<path d="M2320 3425 c0 -8 5 -15 10 -15 6 0 10 7 10 15 0 8 -4 15 -10 15 -5 0
-10 -7 -10 -15z"/>
<path d="M2351 3424 c0 -11 3 -14 6 -6 3 7 2 16 -1 19 -3 4 -6 -2 -5 -13z"/>
<path d="M2370 3431 c0 -6 5 -13 10 -16 6 -3 10 1 10 9 0 9 -4 16 -10 16 -5 0
-10 -4 -10 -9z"/>
<path d="M2401 3424 c0 -11 3 -14 6 -6 3 7 2 16 -1 19 -3 4 -6 -2 -5 -13z"/>
<path d="M2420 3427 c0 -7 9 -13 20 -14 11 -1 20 4 20 10 0 7 -9 13 -20 14
-11 1 -20 -4 -20 -10z"/>
<path d="M2470 3424 c0 -8 5 -12 10 -9 6 3 10 10 10 16 0 5 -4 9 -10 9 -5 0
-10 -7 -10 -16z"/>
<path d="M2496 3425 c-3 -9 0 -15 9 -15 8 0 15 -4 15 -10 0 -16 27 -11 34 6 9
22 -3 32 -15 14 -8 -13 -11 -13 -23 3 -12 15 -14 16 -20 2z"/>
<path d="M2590 3420 c0 -19 3 -21 12 -12 9 9 9 15 0 24 -9 9 -12 7 -12 -12z"/>
<path d="M461 3408 c-17 -47 16 -86 46 -55 13 13 14 19 3 31 -7 9 -19 16 -26
16 -8 0 -14 5 -14 11 0 6 9 9 20 6 11 -3 20 -1 20 4 0 19 -41 8 -49 -13z m42
-32 c7 -16 -1 -26 -20 -26 -7 0 -13 9 -13 20 0 23 25 27 33 6z"/>
<path d="M534 3416 c-10 -27 1 -71 18 -74 25 -5 43 35 29 64 -12 26 -39 32
-47 10z m39 -10 c8 -21 -4 -56 -19 -56 -9 0 -14 12 -14 35 0 36 22 50 33 21z"/>
<path d="M614 3416 c-10 -27 1 -71 19 -74 20 -4 36 30 29 65 -5 26 -39 32 -48
9z m38 -13 c6 -28 -3 -53 -18 -53 -9 0 -14 12 -14 35 0 37 25 51 32 18z"/>
<path d="M2617 3416 c-5 -12 0 -16 18 -16 16 0 25 6 25 15 0 8 -4 15 -10 15
-5 0 -10 -6 -10 -12 0 -10 -2 -10 -9 0 -7 11 -9 11 -14 -2z"/>
<path d="M2671 3414 c0 -11 3 -14 6 -6 3 7 2 16 -1 19 -3 4 -6 -2 -5 -13z"/>
<path d="M2690 3415 c0 -8 7 -15 15 -15 9 0 12 6 9 15 -4 8 -10 15 -15 15 -5
0 -9 -7 -9 -15z"/>
<path d="M2737 3416 c-7 -18 23 -30 37 -15 8 9 7 10 -6 6 -12 -4 -15 -2 -11 9
3 7 1 14 -5 14 -5 0 -12 -6 -15 -14z"/>
<path d="M3111 3414 c0 -11 3 -14 6 -6 3 7 2 16 -1 19 -3 4 -6 -2 -5 -13z"/>
<path d="M3130 3414 c0 -8 5 -12 10 -9 6 3 10 10 10 16 0 5 -4 9 -10 9 -5 0
-10 -7 -10 -16z"/>
<path d="M3990 3390 c0 -5 10 -10 23 -10 18 0 19 2 7 10 -19 13 -30 13 -30 0z"/>
<path d="M1440 3380 c0 -5 5 -10 10 -10 6 0 10 5 10 10 0 6 -4 10 -10 10 -5 0
-10 -4 -10 -10z"/>
<path d="M3161 3374 c0 -11 3 -14 6 -6 3 7 2 16 -1 19 -3 4 -6 -2 -5 -13z"/>
<path d="M4451 3338 c0 -18 -2 -43 -6 -55 -6 -17 -3 -23 9 -23 9 0 16 5 16 10
0 6 -5 10 -11 10 -8 0 -8 4 0 14 13 15 12 76 -1 76 -5 0 -8 -15 -7 -32z"/>
<path d="M2526 3335 c4 -8 12 -15 20 -15 8 0 11 6 8 15 -4 8 -12 15 -20 15 -8
0 -11 -6 -8 -15z"/>
<path d="M2600 3340 c0 -5 9 -10 20 -10 11 0 20 5 20 10 0 6 -9 10 -20 10 -11
0 -20 -4 -20 -10z"/>
<path d="M2650 3340 c0 -5 4 -10 9 -10 6 0 13 5 16 10 3 6 -1 10 -9 10 -9 0
-16 -4 -16 -10z"/>
<path d="M1440 3310 c0 -16 5 -30 10 -30 6 0 10 14 10 30 0 17 -4 30 -10 30
-5 0 -10 -13 -10 -30z"/>
<path d="M3460 3330 c0 -5 5 -10 10 -10 6 0 10 5 10 10 0 6 -4 10 -10 10 -5 0
-10 -4 -10 -10z"/>
<path d="M3490 3330 c0 -5 5 -10 10 -10 6 0 10 5 10 10 0 6 -4 10 -10 10 -5 0
-10 -4 -10 -10z"/>
<path d="M3615 3320 c3 -5 10 -10 16 -10 5 0 9 5 9 10 0 6 -7 10 -16 10 -8 0
-12 -4 -9 -10z"/>
<path d="M3700 3320 c0 -5 7 -10 15 -10 8 0 15 5 15 10 0 6 -7 10 -15 10 -8 0
-15 -4 -15 -10z"/>
<path d="M2610 3304 c0 -11 8 -14 27 -12 28 3 45 28 20 28 -9 0 -18 -6 -20
-12 -4 -10 -6 -10 -6 0 -1 18 -21 15 -21 -4z"/>
<path d="M3840 3310 c0 -5 5 -10 10 -10 6 0 10 5 10 10 0 6 -4 10 -10 10 -5 0
-10 -4 -10 -10z"/>
<path d="M3875 3310 c3 -5 13 -10 21 -10 8 0 14 5 14 10 0 6 -9 10 -21 10 -11
0 -17 -4 -14 -10z"/>
<path d="M3460 3291 c0 -5 10 -13 21 -16 17 -6 19 -9 8 -16 -11 -6 -9 -9 8 -9
30 0 36 14 14 34 -15 13 -20 14 -24 4 -4 -10 -6 -10 -6 0 -1 14 -21 17 -21 3z"/>
<path d="M3667 3293 c-14 -13 -6 -23 18 -23 17 0 25 5 25 18 0 14 -2 15 -10 2
-6 -10 -10 -11 -10 -2 0 13 -13 16 -23 5z"/>
<path d="M1670 3275 c0 -8 4 -15 9 -15 5 0 11 7 15 15 3 9 0 15 -9 15 -8 0
-15 -7 -15 -15z"/>
<path d="M1760 3274 c0 -9 7 -14 17 -12 25 5 28 28 4 28 -12 0 -21 -6 -21 -16z"/>
<path d="M1810 3280 c0 -5 5 -10 10 -10 6 0 10 5 10 10 0 6 -4 10 -10 10 -5 0
-10 -4 -10 -10z"/>
<path d="M1852 3277 c-9 -10 -3 -13 27 -12 26 0 37 4 34 13 -7 16 -48 16 -61
-1z"/>
<path d="M1940 3281 c0 -5 9 -11 20 -14 13 -3 20 0 20 9 0 8 -9 14 -20 14 -11
0 -20 -4 -20 -9z"/>
<path d="M1990 3274 c0 -8 5 -12 10 -9 6 3 10 10 10 16 0 5 -4 9 -10 9 -5 0
-10 -7 -10 -16z"/>
<path d="M2025 3280 c3 -5 8 -10 11 -10 2 0 4 5 4 10 0 6 -5 10 -11 10 -5 0
-7 -4 -4 -10z"/>
<path d="M2057 3283 c-3 -5 6 -9 19 -9 13 -1 24 2 24 7 0 11 -37 12 -43 2z"/>
<path d="M2107 3277 c-4 -10 0 -20 10 -25 10 -6 14 -16 10 -26 -4 -9 -2 -16 3
-16 6 0 10 -5 10 -11 0 -5 -4 -7 -10 -4 -5 3 -10 -1 -10 -9 0 -20 9 -20 35 0
17 13 18 16 5 24 -10 7 -11 10 -2 10 8 0 10 9 6 28 -9 36 -23 51 -33 33 -7
-11 -9 -11 -13 0 -3 9 -6 8 -11 -4z"/>
<path d="M3620 3280 c0 -5 5 -10 10 -10 6 0 10 5 10 10 0 6 -4 10 -10 10 -5 0
-10 -4 -10 -10z"/>
<path d="M3870 3275 c0 -17 2 -18 24 -9 23 9 20 24 -4 24 -11 0 -20 -7 -20
-15z"/>
<path d="M3370 3265 c0 -8 4 -15 10 -15 5 0 7 7 4 15 -4 8 -8 15 -10 15 -2 0
-4 -7 -4 -15z"/>
<path d="M1440 3260 c0 -5 5 -10 10 -10 6 0 10 5 10 10 0 6 -4 10 -10 10 -5 0
-10 -4 -10 -10z"/>
<path d="M3720 3261 c0 -10 19 -25 25 -20 1 2 -3 10 -11 17 -8 7 -14 8 -14 3z"/>
<path d="M3966 3254 c-4 -11 -1 -14 11 -12 9 2 18 9 21 16 6 18 -25 15 -32 -4z"/>
<path d="M4080 3255 c0 -8 7 -15 15 -15 8 0 15 7 15 15 0 8 -7 15 -15 15 -8 0
-15 -7 -15 -15z"/>
<path d="M4317 3249 c7 -7 15 -10 18 -7 3 3 -2 9 -12 12 -14 6 -15 5 -6 -5z"/>
<path d="M1770 3234 c0 -11 8 -14 32 -12 46 4 49 28 4 28 -26 0 -36 -4 -36
-16z"/>
<path d="M4446 3234 c-4 -10 -1 -14 6 -12 15 5 23 28 10 28 -5 0 -13 -7 -16
-16z"/>
<path d="M1860 3230 c0 -5 11 -10 25 -10 14 0 25 5 25 10 0 6 -11 10 -25 10
-14 0 -25 -4 -25 -10z"/>
<path d="M1930 3231 c0 -11 50 -24 58 -16 8 8 -19 25 -40 25 -10 0 -18 -4 -18
-9z"/>
<path d="M1720 3220 c-8 -5 -11 -12 -8 -15 4 -4 17 0 30 9 24 17 5 23 -22 6z"/>
<path d="M3280 3195 c0 -14 5 -25 10 -25 6 0 10 11 10 25 0 14 -4 25 -10 25
-5 0 -10 -11 -10 -25z"/>
<path d="M4360 3200 c0 -11 4 -20 9 -20 5 0 11 9 14 20 3 13 0 20 -9 20 -8 0
-14 -9 -14 -20z"/>
<path d="M3490 3201 c0 -6 5 -13 10 -16 6 -3 10 1 10 9 0 9 -4 16 -10 16 -5 0
-10 -4 -10 -9z"/>
<path d="M3715 3199 c-8 -13 -6 -15 23 -23 26 -9 32 18 6 28 -21 8 -22 8 -29
-5z"/>
<path d="M2070 3186 c0 -9 5 -16 10 -16 6 0 10 4 10 9 0 6 -4 13 -10 16 -5 3
-10 -1 -10 -9z"/>
<path d="M4430 3195 c0 -2 5 -16 12 -30 13 -30 28 -33 28 -5 0 11 -6 20 -12
20 -9 0 -8 4 2 10 12 8 11 10 -7 10 -13 0 -23 -2 -23 -5z"/>
<path d="M1703 3175 c0 -18 19 -15 25 3 2 7 -3 12 -10 12 -8 0 -15 -7 -15 -15z"/>
<path d="M3198 3158 c-5 -105 0 -145 16 -119 4 6 1 11 -6 11 -9 0 -9 3 2 10
19 12 22 50 4 50 -8 0 -14 5 -14 10 0 6 8 10 18 10 14 0 15 2 2 10 -13 9 -13
11 0 20 13 9 13 10 0 10 -13 0 -13 1 0 10 13 8 12 10 -2 10 -13 0 -18 -9 -20
-32z"/>
<path d="M3330 3180 c0 -5 7 -10 16 -10 8 0 12 5 9 10 -3 6 -10 10 -16 10 -5
0 -9 -4 -9 -10z"/>
<path d="M1696 3135 c-6 -18 2 -45 15 -45 5 0 9 14 9 30 0 32 -14 40 -24 15z"/>
<path d="M3370 3109 c0 -18 2 -19 15 -9 15 12 12 30 -6 30 -5 0 -9 -10 -9 -21z"/>
<path d="M3470 3120 c0 -5 7 -10 15 -10 8 0 15 5 15 10 0 6 -7 10 -15 10 -8 0
-15 -4 -15 -10z"/>
<path d="M3970 3105 c0 -17 5 -25 13 -22 6 2 12 12 12 22 0 10 -6 20 -12 23
-8 2 -13 -6 -13 -23z"/>
<path d="M4450 3120 c0 -5 5 -10 10 -10 6 0 10 5 10 10 0 6 -4 10 -10 10 -5 0
-10 -4 -10 -10z"/>
<path d="M4210 3100 c0 -11 5 -20 10 -20 6 0 10 9 10 20 0 11 -4 20 -10 20 -5
0 -10 -9 -10 -20z"/>
<path d="M4320 3105 c0 -8 5 -15 10 -15 6 0 10 7 10 15 0 8 -4 15 -10 15 -5 0
-10 -7 -10 -15z"/>
<path d="M4428 3093 c-11 -3 -18 -14 -18 -29 0 -23 1 -24 16 -10 8 9 22 16 31
16 8 0 13 5 11 12 -5 14 -17 17 -40 11z"/>
<path d="M1416 3073 c-9 -22 10 -41 25 -26 13 13 5 43 -10 43 -5 0 -12 -8 -15
-17z"/>
<path d="M4352 3065 c2 -16 9 -30 16 -31 7 -1 8 0 2 3 -5 2 -10 9 -10 14 0 6
5 7 10 4 16 -10 12 5 -6 22 -14 15 -15 14 -12 -12z"/>
<path d="M3262 3069 c2 -6 8 -10 13 -10 5 0 11 4 13 10 2 6 -4 11 -13 11 -9 0
-15 -5 -13 -11z"/>
<path d="M1674 3056 c-14 -36 13 -95 31 -67 3 6 2 11 -4 11 -5 0 -8 11 -5 25
3 16 0 25 -8 26 -7 0 -4 4 7 9 18 8 18 9 2 9 -10 1 -20 -5 -23 -13z"/>
<path d="M2046 3054 c-11 -30 -6 -40 24 -42 21 -2 30 2 30 13 0 8 -4 15 -10
15 -5 0 -10 -4 -10 -10 0 -5 -5 -10 -10 -10 -6 0 -8 11 -4 25 7 27 -10 35 -20
9z"/>
<path d="M3320 3040 c0 -11 5 -20 10 -20 6 0 10 9 10 20 0 11 -4 20 -10 20 -5
0 -10 -9 -10 -20z"/>
<path d="M1410 3030 c0 -6 7 -10 15 -10 8 0 15 2 15 4 0 2 -7 6 -15 10 -8 3
-15 1 -15 -4z"/>
<path d="M2130 3026 c0 -9 7 -12 20 -9 11 3 17 9 14 14 -8 14 -34 10 -34 -5z"/>
<path d="M3260 3030 c0 -5 5 -10 11 -10 5 0 7 5 4 10 -3 6 -8 10 -11 10 -2 0
-4 -4 -4 -10z"/>
<path d="M3477 3033 c-13 -12 -7 -23 13 -23 11 0 20 7 20 15 0 15 -21 21 -33
8z"/>
<path d="M3711 3024 c0 -11 3 -14 6 -6 3 7 2 16 -1 19 -3 4 -6 -2 -5 -13z"/>
<path d="M3730 3025 c0 -8 5 -15 10 -15 6 0 10 7 10 15 0 8 -4 15 -10 15 -5 0
-10 -7 -10 -15z"/>
<path d="M3940 3020 c0 -5 7 -10 15 -10 8 0 15 5 15 10 0 6 -7 10 -15 10 -8 0
-15 -4 -15 -10z"/>
<path d="M1417 3004 c-8 -9 11 -44 23 -44 6 0 10 7 10 15 0 8 -6 14 -12 13 -7
-2 -12 3 -10 10 2 13 -1 15 -11 6z"/>
<path d="M3194 2968 c-1 -92 -4 -108 -19 -108 -8 0 -15 -8 -16 -17 0 -15 -2
-15 -9 2 -6 14 -9 15 -10 5 -1 -8 -3 -23 -5 -32 -5 -27 20 -22 35 7 13 25 32
35 28 14 -2 -6 7 -13 20 -15 12 -2 22 1 22 6 0 6 -7 10 -15 10 -12 0 -13 15
-8 85 5 70 3 85 -8 85 -11 0 -15 -12 -15 -42z"/>
<path d="M1745 2990 c3 -5 13 -10 21 -10 8 0 14 5 14 10 0 6 -9 10 -21 10 -11
0 -17 -4 -14 -10z"/>
<path d="M1800 2990 c0 -5 5 -10 10 -10 6 0 10 5 10 10 0 6 -4 10 -10 10 -5 0
-10 -4 -10 -10z"/>
<path d="M1850 2990 c0 -5 9 -10 20 -10 11 0 20 5 20 10 0 6 -9 10 -20 10 -11
0 -20 -4 -20 -10z"/>
<path d="M1910 2990 c0 -5 5 -10 10 -10 6 0 10 5 10 10 0 6 -4 10 -10 10 -5 0
-10 -4 -10 -10z"/>
<path d="M1970 2990 c0 -5 5 -10 10 -10 6 0 10 5 10 10 0 6 -4 10 -10 10 -5 0
-10 -4 -10 -10z"/>
<path d="M2130 2981 c-13 -25 -13 -31 1 -31 5 0 7 5 4 10 -3 6 1 10 9 10 9 0
16 7 16 15 0 21 -17 19 -30 -4z"/>
<path d="M2090 2975 c0 -8 5 -15 10 -15 6 0 10 7 10 15 0 8 -4 15 -10 15 -5 0
-10 -7 -10 -15z"/>
<path d="M4430 2970 c0 -5 7 -7 15 -4 8 4 15 8 15 10 0 2 -7 4 -15 4 -8 0 -15
-4 -15 -10z"/>
<path d="M1630 2961 c0 -5 7 -12 16 -15 24 -9 28 -7 14 9 -14 17 -30 20 -30 6z"/>
<path d="M3360 2960 c0 -5 7 -10 15 -10 8 0 15 5 15 10 0 6 -7 10 -15 10 -8 0
-15 -4 -15 -10z"/>
<path d="M3468 2951 c-4 -13 -11 -20 -17 -16 -6 3 -11 -1 -11 -9 0 -8 5 -18
11 -22 17 -10 31 11 27 42 -3 28 -3 28 -10 5z"/>
<path d="M3506 2955 c-3 -8 -1 -15 4 -15 6 0 10 7 10 15 0 8 -2 15 -4 15 -2 0
-6 -7 -10 -15z"/>
<path d="M3710 2954 c0 -9 5 -14 12 -12 18 6 21 28 4 28 -9 0 -16 -7 -16 -16z"/>
<path d="M1415 2938 c2 -26 20 -35 28 -14 4 9 -1 20 -12 25 -14 8 -17 6 -16
-11z"/>
<path d="M3933 2945 c-17 -19 -16 -35 2 -35 8 0 15 4 15 9 0 5 3 16 6 25 8 20
-7 20 -23 1z"/>
<path d="M4077 2954 c-8 -8 1 -24 14 -24 5 0 9 7 9 15 0 15 -12 20 -23 9z"/>
<path d="M4310 2944 c0 -9 5 -14 12 -12 18 6 21 28 4 28 -9 0 -16 -7 -16 -16z"/>
<path d="M4435 2950 c-3 -5 1 -10 9 -10 9 0 16 5 16 10 0 6 -4 10 -9 10 -6 0
-13 -4 -16 -10z"/>
<path d="M3596 2942 c-13 -12 -5 -22 19 -22 14 0 25 4 25 9 0 10 -36 21 -44
13z"/>
<path d="M467 2933 c-14 -13 -7 -43 8 -37 20 8 35 -4 28 -22 -3 -9 -13 -14
-24 -11 -11 3 -17 1 -13 -4 8 -13 30 -11 43 5 15 18 3 46 -20 46 -27 0 -24 18
4 23 20 4 20 4 1 6 -11 0 -24 -2 -27 -6z"/>
<path d="M534 2926 c-10 -27 1 -71 18 -74 24 -5 40 31 28 62 -10 28 -37 35
-46 12z m38 -19 c6 -30 -1 -47 -18 -47 -9 0 -14 11 -14 35 0 40 25 49 32 12z"/>
<path d="M614 2926 c-11 -30 0 -71 20 -71 11 0 20 6 22 13 1 7 0 8 -3 2 -12
-25 -33 -9 -33 25 0 35 22 50 33 23 3 -8 6 -6 6 5 1 21 -37 24 -45 3z"/>
<path d="M2120 2930 c0 -5 5 -10 10 -10 6 0 10 5 10 10 0 6 -4 10 -10 10 -5 0
-10 -4 -10 -10z"/>
<path d="M3860 2925 c0 -8 7 -15 15 -15 8 0 15 7 15 15 0 8 -7 15 -15 15 -8 0
-15 -7 -15 -15z"/>
<path d="M3497 2924 c-8 -8 1 -24 14 -24 5 0 9 7 9 15 0 15 -12 20 -23 9z"/>
<path d="M3665 2920 c-3 -5 -1 -10 4 -10 6 0 11 5 11 10 0 6 -2 10 -4 10 -3 0
-8 -4 -11 -10z"/>
<path d="M4435 2919 c-4 -6 -4 -13 -1 -16 8 -8 36 5 36 17 0 13 -27 13 -35 -1z"/>
<path d="M3755 2910 c3 -5 8 -10 11 -10 2 0 4 5 4 10 0 6 -5 10 -11 10 -5 0
-7 -4 -4 -10z"/>
<path d="M1750 2901 c0 -6 5 -13 10 -16 6 -3 10 1 10 9 0 9 -4 16 -10 16 -5 0
-10 -4 -10 -9z"/>
<path d="M3897 2893 c-14 -13 -6 -24 15 -21 27 4 36 28 11 28 -11 0 -23 -3
-26 -7z"/>
<path d="M2110 2880 c0 -5 5 -12 10 -15 8 -5 8 -11 1 -19 -6 -7 -8 -16 -4 -20
4 -4 1 -11 -7 -16 -10 -7 -11 -10 -2 -10 6 0 12 -8 12 -17 0 -15 -2 -16 -10
-3 -14 21 -13 -5 0 -31 14 -25 5 -24 -32 2 -16 12 -32 18 -35 15 -9 -9 28 -46
47 -46 9 0 21 -5 28 -12 6 -6 15 -8 19 -4 4 4 3 10 -2 14 -14 10 -17 32 -4 32
12 0 9 59 -4 78 -6 8 -5 12 2 12 17 0 13 37 -4 44 -8 3 -15 1 -15 -4z"/>
<path d="M3475 2880 c-3 -5 -1 -10 4 -10 6 0 11 5 11 10 0 6 -2 10 -4 10 -3 0
-8 -4 -11 -10z"/>
<path d="M3760 2880 c0 -6 7 -10 15 -10 8 0 15 2 15 4 0 2 -7 6 -15 10 -8 3
-15 1 -15 -4z"/>
<path d="M4430 2875 c0 -8 6 -15 14 -15 8 0 16 7 20 15 4 10 -1 15 -14 15 -11
0 -20 -7 -20 -15z"/>
<path d="M1480 2870 c0 -12 40 -33 48 -25 4 4 -2 13 -12 21 -23 16 -36 18 -36
4z"/>
<path d="M1835 2860 c-3 -5 -1 -10 4 -10 6 0 11 5 11 10 0 6 -2 10 -4 10 -3 0
-8 -4 -11 -10z"/>
<path d="M2562 2841 c1 -29 18 -46 18 -18 0 9 3 8 9 -2 7 -11 9 -11 14 0 4 10
6 10 6 2 1 -17 28 -17 34 0 8 22 -7 37 -46 44 -35 5 -36 5 -35 -26z"/>
<path d="M1547 2854 c-10 -11 -9 -26 2 -19 6 3 13 -1 18 -9 10 -16 90 -56 97
-48 12 11 5 24 -9 18 -9 -3 -15 0 -15 9 0 8 -9 15 -20 15 -11 0 -20 5 -20 10
0 6 -9 10 -19 10 -11 0 -21 5 -23 11 -2 5 -7 7 -11 3z"/>
<path d="M2470 2840 c0 -11 3 -20 8 -21 4 0 17 -2 30 -5 13 -2 22 1 22 9 0 8
4 7 11 -3 9 -12 10 -12 5 3 -3 10 -6 24 -6 30 0 7 -4 6 -10 -3 -8 -12 -11 -13
-19 -1 -7 11 -9 11 -14 0 -4 -10 -6 -10 -6 -1 -2 20 -21 13 -21 -8z"/>
<path d="M2650 2852 c0 -4 9 -15 20 -25 13 -11 20 -13 20 -4 0 8 4 7 11 -3 8
-11 12 -12 16 -2 2 6 9 12 14 12 6 0 7 -4 4 -10 -3 -5 0 -10 8 -10 14 0 27 20
27 41 0 14 -78 11 -84 -3 -5 -10 -7 -10 -12 0 -6 13 -24 17 -24 4z"/>
<path d="M4436 2836 c3 -8 12 -12 20 -9 21 8 17 23 -6 23 -13 0 -18 -5 -14
-14z"/>
<path d="M3270 2830 c0 -5 5 -10 10 -10 6 0 10 5 10 10 0 6 -4 10 -10 10 -5 0
-10 -4 -10 -10z"/>
<path d="M3330 2830 c0 -5 5 -10 10 -10 6 0 10 5 10 10 0 6 -4 10 -10 10 -5 0
-10 -4 -10 -10z"/>
<path d="M3380 2830 c0 -5 9 -10 20 -10 11 0 20 5 20 10 0 6 -9 10 -20 10 -11
0 -20 -4 -20 -10z"/>
<path d="M3437 2825 c-5 -11 0 -15 16 -15 12 0 18 4 12 8 -5 4 -13 11 -16 15
-4 4 -9 1 -12 -8z"/>
<path d="M3480 2824 c0 -15 20 -18 58 -8 34 10 26 20 -18 21 -29 2 -40 -2 -40
-13z"/>
<path d="M3597 2833 c-15 -14 -6 -23 23 -23 32 0 40 14 14 24 -20 8 -29 8 -37
-1z"/>
<path d="M3667 2834 c-13 -13 -7 -24 14 -24 11 0 19 5 17 12 -5 14 -22 21 -31
12z"/>
<path d="M3177 2823 c-4 -3 -7 -11 -7 -17 0 -6 5 -5 12 2 6 6 9 14 7 17 -3 3
-9 2 -12 -2z"/>
<path d="M3730 2820 c0 -5 5 -10 10 -10 6 0 10 5 10 10 0 6 -4 10 -10 10 -5 0
-10 -4 -10 -10z"/>
<path d="M3780 2820 c0 -5 5 -10 10 -10 6 0 10 5 10 10 0 6 -4 10 -10 10 -5 0
-10 -4 -10 -10z"/>
<path d="M3830 2819 c0 -5 9 -9 20 -9 11 0 20 4 20 8 0 4 -9 8 -20 9 -11 1
-20 -2 -20 -8z"/>
<path d="M3880 2820 c0 -5 9 -10 20 -10 11 0 20 5 20 10 0 6 -9 10 -20 10 -11
0 -20 -4 -20 -10z"/>
<path d="M3950 2820 c0 -5 5 -10 10 -10 6 0 10 5 10 10 0 6 -4 10 -10 10 -5 0
-10 -4 -10 -10z"/>
<path d="M4000 2820 c0 -5 5 -10 10 -10 6 0 10 5 10 10 0 6 -4 10 -10 10 -5 0
-10 -4 -10 -10z"/>
<path d="M4050 2821 c0 -6 5 -13 10 -16 6 -3 10 1 10 9 0 9 -4 16 -10 16 -5 0
-10 -4 -10 -9z"/>
<path d="M4081 2814 c0 -11 3 -14 6 -6 3 7 2 16 -1 19 -3 4 -6 -2 -5 -13z"/>
<path d="M4100 2815 c0 -8 5 -15 10 -15 6 0 10 7 10 15 0 8 -4 15 -10 15 -5 0
-10 -7 -10 -15z"/>
<path d="M4131 2814 c0 -11 3 -14 6 -6 3 7 2 16 -1 19 -3 4 -6 -2 -5 -13z"/>
<path d="M4150 2815 c0 -8 5 -15 10 -15 6 0 10 7 10 15 0 8 -4 15 -10 15 -5 0
-10 -7 -10 -15z"/>
<path d="M4180 2815 c0 -8 7 -15 15 -15 8 0 15 7 15 15 0 8 -7 15 -15 15 -8 0
-15 -7 -15 -15z"/>
<path d="M4220 2810 c0 -5 5 -10 10 -10 6 0 10 5 10 10 0 6 -4 10 -10 10 -5 0
-10 -4 -10 -10z"/>
<path d="M4270 2810 c0 -5 9 -10 21 -10 11 0 17 5 14 10 -3 6 -13 10 -21 10
-8 0 -14 -4 -14 -10z"/>
<path d="M4320 2810 c0 -5 5 -10 10 -10 6 0 10 5 10 10 0 6 -4 10 -10 10 -5 0
-10 -4 -10 -10z"/>
<path d="M4350 2810 c0 -5 5 -10 11 -10 5 0 7 5 4 10 -3 6 -8 10 -11 10 -2 0
-4 -4 -4 -10z"/>
<path d="M4380 2810 c0 -5 5 -10 10 -10 6 0 10 5 10 10 0 6 -4 10 -10 10 -5 0
-10 -4 -10 -10z"/>
<path d="M1950 2796 c0 -8 11 -17 24 -20 13 -3 31 -9 40 -12 28 -11 17 10 -15
29 -37 21 -49 22 -49 3z"/>
<path d="M4430 2790 c0 -5 7 -10 15 -10 8 0 15 5 15 10 0 6 -7 10 -15 10 -8 0
-15 -4 -15 -10z"/>
<path d="M1676 2771 c-3 -5 1 -11 9 -15 8 -3 15 -1 15 4 0 13 -18 22 -24 11z"/>
<path d="M4435 2759 c-9 -14 -2 -20 14 -10 8 6 9 11 3 15 -6 3 -14 1 -17 -5z"/>
<path d="M1734 2744 c3 -9 6 -18 6 -20 0 -2 7 -4 15 -4 20 0 19 26 -1 34 -24
9 -27 8 -20 -10z"/>
<path d="M4435 2730 c-3 -5 1 -10 9 -10 9 0 16 5 16 10 0 6 -4 10 -9 10 -6 0
-13 -4 -16 -10z"/>
<path d="M1796 2715 c-3 -8 -1 -15 4 -15 6 0 10 -7 10 -15 0 -8 2 -15 4 -15 2
0 12 -3 22 -7 12 -4 15 -3 10 5 -4 7 -2 12 3 12 20 0 11 16 -18 33 -25 15 -30
15 -35 2z"/>
<path d="M4435 2700 c-3 -5 1 -10 9 -10 9 0 16 5 16 10 0 6 -4 10 -9 10 -6 0
-13 -4 -16 -10z"/>
<path d="M3400 2681 c0 -12 6 -21 16 -21 9 0 14 7 12 17 -5 25 -28 28 -28 4z"/>
<path d="M3510 2675 c0 -8 5 -15 10 -15 6 0 10 7 10 15 0 8 -4 15 -10 15 -5 0
-10 -7 -10 -15z"/>
<path d="M3666 2674 c-4 -10 -1 -14 6 -12 15 5 23 28 10 28 -5 0 -13 -7 -16
-16z"/>
<path d="M3766 2675 c4 -8 10 -15 15 -15 5 0 9 7 9 15 0 8 -7 15 -15 15 -9 0
-12 -6 -9 -15z"/>
<path d="M3356 2664 c-8 -20 -4 -25 11 -16 7 4 9 13 4 21 -6 10 -10 9 -15 -5z"/>
<path d="M3569 2673 c0 -5 -2 -27 -5 -50 -7 -53 11 -58 20 -5 8 51 8 62 -4 62
-5 0 -10 -3 -11 -7z"/>
<path d="M3613 2627 c-1 -53 9 -78 25 -62 3 3 0 10 -8 15 -10 7 -11 10 -2 10
6 0 12 11 12 25 0 14 -4 25 -9 25 -5 0 -11 10 -14 23 -2 12 -4 -4 -4 -36z"/>
<path d="M4443 2663 c-16 -6 -17 -33 -1 -33 6 0 8 3 5 7 -4 3 -2 12 4 20 12
14 11 14 -8 6z"/>
<path d="M3300 2645 c0 -8 7 -15 15 -15 8 0 15 7 15 15 0 8 -7 15 -15 15 -8 0
-15 -7 -15 -15z"/>
<path d="M1965 2630 c-3 -5 -1 -10 4 -10 6 0 11 5 11 10 0 6 -2 10 -4 10 -3 0
-8 -4 -11 -10z"/>
<path d="M3180 2626 c0 -8 6 -17 13 -19 10 -4 10 -6 0 -6 -18 -1 -16 -21 2
-21 10 0 15 10 15 30 0 20 -5 30 -15 30 -8 0 -15 -6 -15 -14z"/>
<path d="M1996 2614 c-3 -9 4 -16 22 -21 14 -3 35 -15 46 -25 11 -10 26 -18
34 -18 12 0 12 -4 -2 -24 -14 -22 -14 -27 -1 -40 11 -11 12 -15 2 -19 -6 -2
-9 -7 -5 -11 3 -4 16 -2 29 5 21 11 21 13 6 24 -20 15 -22 25 -4 25 9 0 12 9
9 29 -3 23 -14 35 -45 50 -22 11 -44 18 -49 15 -4 -3 -8 -1 -8 4 0 17 -28 22
-34 6z"/>
<path d="M4307 2623 c-13 -12 -7 -43 8 -43 9 0 15 9 15 25 0 24 -10 32 -23 18z"/>
<path d="M3310 2605 c0 -8 5 -15 10 -15 6 0 10 7 10 15 0 8 -4 15 -10 15 -5 0
-10 -7 -10 -15z"/>
<path d="M4360 2604 c0 -8 5 -12 10 -9 6 3 10 10 10 16 0 5 -4 9 -10 9 -5 0
-10 -7 -10 -16z"/>
<path d="M3820 2585 c0 -17 5 -25 18 -25 15 0 15 2 2 11 -11 8 -12 12 -2 16
17 7 15 23 -3 23 -9 0 -15 -9 -15 -25z"/>
<path d="M3870 2593 c0 -15 19 -37 26 -31 3 4 -1 14 -10 23 -9 9 -16 13 -16 8z"/>
<path d="M4420 2575 c0 -33 25 -33 26 0 1 15 -3 25 -12 25 -8 0 -14 -10 -14
-25z"/>
<path d="M3300 2570 c0 -5 4 -10 9 -10 6 0 13 5 16 10 3 6 -1 10 -9 10 -9 0
-16 -4 -16 -10z"/>
<path d="M3060 2555 c0 -8 4 -15 10 -15 5 0 7 7 4 15 -4 8 -8 15 -10 15 -2 0
-4 -7 -4 -15z"/>
<path d="M3170 2553 c0 -10 4 -14 8 -8 4 6 11 13 16 18 5 4 2 7 -7 7 -10 0
-17 -8 -17 -17z"/>
<path d="M4300 2530 c0 -16 4 -30 10 -30 5 0 7 7 4 15 -4 8 -1 15 5 15 6 0 11
7 11 15 0 8 -7 15 -15 15 -10 0 -15 -10 -15 -30z"/>
<path d="M4360 2535 c0 -8 7 -15 15 -15 9 0 12 6 9 15 -4 8 -10 15 -15 15 -5
0 -9 -7 -9 -15z"/>
<path d="M3390 2525 c0 -9 6 -12 15 -9 8 4 12 10 9 15 -8 14 -24 10 -24 -6z"/>
<path d="M3657 2534 c-8 -8 1 -24 14 -24 5 0 9 7 9 15 0 15 -12 20 -23 9z"/>
<path d="M3755 2529 c-4 -6 -4 -13 -1 -16 8 -8 36 5 36 17 0 13 -27 13 -35 -1z"/>
<path d="M3900 2515 c0 -8 7 -15 15 -15 8 0 15 7 15 15 0 8 -7 15 -15 15 -8 0
-15 -7 -15 -15z"/>
<path d="M4005 2519 c-4 -6 -5 -12 -2 -15 7 -7 37 7 37 17 0 13 -27 11 -35 -2z"/>
<path d="M4420 2520 c0 -5 5 -10 10 -10 6 0 10 5 10 10 0 6 -4 10 -10 10 -5 0
-10 -4 -10 -10z"/>
<path d="M3020 2500 c0 -5 7 -10 15 -10 8 0 15 5 15 10 0 6 -7 10 -15 10 -8 0
-15 -4 -15 -10z"/>
<path d="M2983 2486 c5 -16 27 -19 27 -3 0 7 -7 14 -15 14 -9 0 -14 -5 -12
-11z"/>
<path d="M3178 2477 c-3 -15 0 -24 9 -24 7 0 13 11 13 24 0 13 -4 23 -9 23 -5
0 -11 -10 -13 -23z"/>
<path d="M2560 2479 c0 -5 -4 -7 -10 -4 -5 3 -10 -1 -10 -9 0 -10 6 -13 15
-10 14 6 22 34 10 34 -3 0 -5 -5 -5 -11z"/>
<path d="M2586 2481 c-8 -12 17 -61 32 -61 15 0 16 42 0 58 -14 14 -25 15 -32
3z"/>
<path d="M4162 2479 c2 -6 8 -10 13 -10 5 0 11 4 13 10 2 6 -4 11 -13 11 -9 0
-15 -5 -13 -11z"/>
<path d="M3023 2465 c0 -9 7 -15 16 -13 19 4 18 22 -2 26 -7 2 -14 -4 -14 -13z"/>
<path d="M3500 2450 c0 -5 4 -10 9 -10 6 0 13 5 16 10 3 6 -1 10 -9 10 -9 0
-16 -4 -16 -10z"/>
<path d="M3650 2447 c0 -10 8 -17 18 -17 9 0 13 4 7 8 -5 4 -13 11 -17 16 -5
5 -8 2 -8 -7z"/>
<path d="M3762 2448 c6 -18 28 -21 28 -4 0 9 -7 16 -16 16 -9 0 -14 -5 -12
-12z"/>
<path d="M4010 2440 c0 -11 5 -20 10 -20 6 0 10 9 10 20 0 11 -4 20 -10 20 -5
0 -10 -9 -10 -20z"/>
<path d="M472 2422 c-20 -27 -21 -33 -8 -38 30 -11 41 0 36 36 l-5 35 -23 -33z
m18 -12 c0 -11 -7 -20 -15 -20 -13 0 -13 3 -3 20 7 11 14 20 15 20 2 0 3 -9 3
-20z"/>
<path d="M534 2436 c-10 -27 1 -71 18 -74 24 -5 40 31 28 62 -10 28 -37 35
-46 12z m38 -19 c6 -30 -1 -47 -18 -47 -9 0 -14 11 -14 35 0 40 25 49 32 12z"/>
<path d="M617 2444 c-4 -4 -7 -22 -7 -41 0 -39 26 -56 45 -29 24 32 -11 96
-38 70z m35 -27 c6 -30 -1 -47 -18 -47 -9 0 -14 11 -14 35 0 40 25 49 32 12z"/>
<path d="M2108 2444 c-10 -10 4 -44 18 -44 21 0 17 30 -3 31 -15 0 -15 2 2 9
15 6 16 9 4 9 -9 1 -18 -2 -21 -5z"/>
<path d="M3810 2441 c0 -6 5 -13 10 -16 6 -3 10 1 10 9 0 9 -4 16 -10 16 -5 0
-10 -4 -10 -9z"/>
<path d="M4420 2410 c0 -22 4 -40 8 -40 5 0 9 18 10 40 1 22 -3 40 -8 40 -6 0
-10 -18 -10 -40z"/>
<path d="M3172 2428 c-15 -15 -15 -35 0 -44 7 -4 8 -3 4 4 -4 7 -1 12 8 12 9
0 16 9 16 20 0 23 -10 26 -28 8z"/>
<path d="M2720 2412 c0 -6 -8 -13 -17 -15 -16 -4 -16 -5 -1 -6 18 -1 34 16 24
26 -3 4 -6 1 -6 -5z"/>
<path d="M2744 2404 c4 -9 1 -23 -5 -31 -7 -7 -8 -17 -4 -21 4 -4 10 -1 12 6
3 6 11 12 19 12 8 0 14 5 14 10 0 6 -4 10 -10 10 -5 0 -7 7 -4 15 4 10 0 15
-11 15 -12 0 -15 -5 -11 -16z"/>
<path d="M3050 2410 c0 -5 7 -10 15 -10 8 0 15 5 15 10 0 6 -7 10 -15 10 -8 0
-15 -4 -15 -10z"/>
<path d="M3370 2385 c0 -24 5 -35 15 -35 10 0 15 11 15 35 0 24 -5 35 -15 35
-10 0 -15 -11 -15 -35z"/>
<path d="M3868 2413 c7 -3 16 -2 19 1 4 3 -2 6 -13 5 -11 0 -14 -3 -6 -6z"/>
<path d="M2092 2336 c1 -61 4 -73 16 -68 10 3 13 1 8 -6 -4 -7 -2 -12 3 -12
15 0 14 27 -1 33 -10 4 -10 6 0 6 15 1 17 81 2 81 -5 0 -10 6 -10 14 0 8 -4
18 -10 21 -6 3 -9 -23 -8 -69z"/>
<path d="M3320 2391 c0 -11 5 -23 10 -26 6 -4 10 5 10 19 0 14 -4 26 -10 26
-5 0 -10 -9 -10 -19z"/>
<path d="M2413 2394 c-15 -7 -5 -34 12 -34 7 0 15 9 18 20 5 20 -5 24 -30 14z"/>
<path d="M2463 2385 c-7 -8 -13 -19 -13 -25 0 -5 -9 -10 -20 -10 -11 0 -20 -7
-20 -15 0 -8 7 -15 15 -15 8 0 15 5 15 11 0 5 5 7 12 3 7 -4 8 -3 4 4 -4 7 -1
12 8 12 10 0 16 9 16 25 0 29 -1 29 -17 10z"/>
<path d="M3560 2390 c0 -5 7 -10 15 -10 8 0 15 5 15 10 0 6 -7 10 -15 10 -8 0
-15 -4 -15 -10z"/>
<path d="M3622 2388 c-16 -16 -15 -38 2 -38 20 0 31 21 16 30 -10 6 -9 9 1 13
8 3 9 6 4 6 -6 1 -16 -4 -23 -11z"/>
<path d="M3853 2369 c0 -17 6 -29 14 -29 7 0 13 7 13 16 0 8 -6 21 -13 29 -11
11 -14 8 -14 -16z"/>
<path d="M3183 2373 c-18 -7 -16 -43 2 -43 9 0 15 9 15 25 0 14 -1 25 -2 24
-2 0 -9 -3 -15 -6z"/>
<path d="M2750 2340 c-8 -5 -12 -10 -8 -10 4 0 3 -11 -2 -25 -7 -20 -6 -25 5
-25 9 0 12 6 9 15 -5 11 -2 13 10 9 12 -5 16 0 16 20 0 28 -6 31 -30 16z"/>
<path d="M2470 2319 c-14 -24 -9 -32 14 -23 17 7 23 44 6 44 -5 0 -14 -9 -20
-21z"/>
<path d="M3170 2305 c0 -8 7 -15 15 -15 8 0 15 4 15 9 0 5 -7 11 -15 15 -9 3
-15 0 -15 -9z"/>
<path d="M3390 2306 c0 -9 7 -16 16 -16 9 0 14 5 12 12 -6 18 -28 21 -28 4z"/>
<path d="M3650 2305 c0 -9 5 -15 11 -13 6 2 11 8 11 13 0 5 -5 11 -11 13 -6 2
-11 -4 -11 -13z"/>
<path d="M2410 2299 c0 -5 5 -7 10 -4 6 3 10 8 10 11 0 2 -4 4 -10 4 -5 0 -10
-5 -10 -11z"/>
<path d="M2690 2300 c0 -5 6 -10 14 -10 8 0 18 5 21 10 3 6 -3 10 -14 10 -12
0 -21 -4 -21 -10z"/>
<path d="M4000 2295 c0 -8 7 -15 15 -15 8 0 15 7 15 15 0 8 -7 15 -15 15 -8 0
-15 -7 -15 -15z"/>
<path d="M4420 2294 c0 -8 5 -12 10 -9 6 3 10 10 10 16 0 5 -4 9 -10 9 -5 0
-10 -7 -10 -16z"/>
<path d="M4410 2250 c0 -19 -5 -21 -37 -18 -46 4 -55 -17 -12 -26 22 -4 36 -2
41 6 6 10 12 8 23 -6 15 -20 15 -20 17 0 4 51 2 59 -15 62 -12 2 -17 -3 -17
-18z"/>
<path d="M2474 2245 c3 -9 0 -15 -8 -15 -20 0 -28 -29 -12 -45 12 -12 15 -12
20 1 3 9 4 20 0 25 -3 5 0 9 5 9 6 0 11 9 11 20 0 11 -5 20 -11 20 -6 0 -9 -7
-5 -15z"/>
<path d="M2504 2244 c3 -9 6 -19 6 -22 0 -9 62 -9 77 1 6 4 13 2 15 -4 3 -9
10 -8 25 1 12 8 19 20 16 27 -8 20 -47 16 -63 -7 -8 -11 -18 -20 -22 -20 -3 0
-10 9 -13 20 -4 11 -15 20 -27 20 -14 0 -18 -5 -14 -16z m126 -4 c0 -5 -5 -10
-11 -10 -5 0 -7 5 -4 10 3 6 8 10 11 10 2 0 4 -4 4 -10z"/>
<path d="M2653 2246 c4 -10 7 -22 7 -27 0 -5 7 -9 15 -9 8 0 15 5 15 10 0 6
-4 10 -10 10 -5 0 -9 5 -7 11 1 6 -4 14 -12 17 -10 3 -12 0 -8 -12z"/>
<path d="M2700 2250 c0 -5 5 -10 10 -10 7 0 7 -7 -1 -21 -8 -15 -8 -24 0 -32
8 -8 11 -5 11 10 0 12 5 23 11 25 14 5 0 38 -17 38 -8 0 -14 -4 -14 -10z"/>
<path d="M3115 2239 c-5 -14 -2 -25 6 -30 19 -12 49 -11 49 2 0 5 4 8 9 5 5
-3 12 1 15 10 3 8 2 12 -4 9 -6 -3 -10 -1 -10 4 0 6 -5 11 -11 11 -5 0 -8 -4
-5 -9 6 -9 -35 -24 -43 -16 -2 3 1 5 7 5 7 0 12 7 12 15 0 22 -18 18 -25 -6z"/>
<path d="M2090 2235 c0 -9 6 -12 15 -9 8 4 15 7 15 9 0 2 -7 5 -15 9 -9 3 -15
0 -15 -9z"/>
<path d="M3466 2242 c-3 -6 -1 -14 5 -17 15 -10 25 3 12 16 -7 7 -13 7 -17 1z"/>
<path d="M3520 2235 c0 -8 7 -15 15 -15 8 0 15 4 15 9 0 5 -7 11 -15 15 -9 3
-15 0 -15 -9z"/>
<path d="M3570 2235 c0 -8 4 -15 10 -15 5 0 7 7 4 15 -4 8 -8 15 -10 15 -2 0
-4 -7 -4 -15z"/>
<path d="M3605 2242 c-15 -15 0 -22 45 -22 28 0 50 5 50 10 0 6 -6 10 -12 11
-7 0 -27 2 -45 3 -18 2 -35 1 -38 -2z"/>
<path d="M3210 2230 c0 -5 5 -10 10 -10 6 0 10 5 10 10 0 6 -4 10 -10 10 -5 0
-10 -4 -10 -10z"/>
<path d="M3260 2230 c0 -5 5 -10 10 -10 6 0 10 5 10 10 0 6 -4 10 -10 10 -5 0
-10 -4 -10 -10z"/>
<path d="M3310 2230 c0 -5 5 -10 10 -10 6 0 10 5 10 10 0 6 -4 10 -10 10 -5 0
-10 -4 -10 -10z"/>
<path d="M3360 2229 c0 -5 9 -9 20 -9 11 0 20 4 20 8 0 4 -9 8 -20 9 -11 1
-20 -2 -20 -8z"/>
<path d="M3410 2229 c0 -5 9 -9 20 -9 11 0 20 4 20 8 0 4 -9 8 -20 9 -11 1
-20 -2 -20 -8z"/>
<path d="M3740 2224 c0 -8 5 -12 10 -9 6 3 10 10 10 16 0 5 -4 9 -10 9 -5 0
-10 -7 -10 -16z"/>
<path d="M3780 2228 c0 -7 13 -14 28 -15 17 -1 29 3 29 11 0 6 -13 13 -29 14
-17 1 -28 -3 -28 -10z"/>
<path d="M3860 2225 c0 -8 5 -15 10 -15 6 0 10 7 10 15 0 8 -4 15 -10 15 -5 0
-10 -7 -10 -15z"/>
<path d="M3900 2225 c0 -8 7 -15 15 -15 8 0 15 7 15 15 0 8 -7 15 -15 15 -8 0
-15 -7 -15 -15z"/>
<path d="M3966 2231 c-4 -7 -5 -15 -2 -18 9 -9 19 4 14 18 -4 11 -6 11 -12 0z"/>
<path d="M4065 2222 c-7 -18 3 -31 13 -16 4 6 14 13 22 16 10 3 8 6 -7 10 -14
4 -24 0 -28 -10z"/>
<path d="M4116 2224 c-8 -21 -8 -24 3 -24 12 0 22 28 12 35 -5 3 -12 -2 -15
-11z"/>
<path d="M4170 2231 c0 -7 -4 -9 -10 -6 -6 3 -7 -1 -4 -9 3 -9 10 -16 14 -16
16 0 22 22 11 33 -8 8 -11 8 -11 -2z"/>
<path d="M4220 2229 c0 -5 -5 -7 -11 -3 -7 4 -10 1 -7 -6 2 -7 14 -15 26 -17
20 -3 21 0 12 17 -12 22 -20 26 -20 9z"/>
<path d="M4015 2220 c3 -5 8 -10 11 -10 2 0 4 5 4 10 0 6 -5 10 -11 10 -5 0
-7 -4 -4 -10z"/>
<path d="M4267 2217 c-3 -8 5 -12 23 -12 20 -1 26 3 22 13 -4 11 -6 11 -13 0
-7 -10 -9 -10 -9 0 0 16 -16 16 -23 -1z"/>
<path d="M2094 2185 c4 -15 2 -25 -4 -25 -6 0 -8 -11 -4 -27 8 -31 27 -49 33
-32 2 6 -3 15 -10 20 -10 6 -11 9 -1 9 15 0 16 46 1 56 -8 4 -7 9 2 15 11 7
10 9 -5 9 -14 0 -17 -5 -12 -25z"/>
<path d="M2418 2180 c-3 -16 -1 -30 2 -30 4 0 5 -11 2 -25 -2 -14 -9 -25 -14
-25 -5 0 -6 -4 -3 -10 3 -5 17 -10 31 -10 21 0 23 3 15 18 -6 11 -10 27 -10
38 1 21 -8 65 -14 71 -3 2 -7 -10 -9 -27z"/>
<path d="M2670 2177 c0 -10 6 -20 14 -23 8 -3 12 -13 8 -26 -3 -15 -1 -19 9
-16 22 7 23 47 2 55 -10 4 -21 11 -25 17 -5 7 -8 4 -8 -7z"/>
<path d="M3650 2175 c0 -8 5 -15 10 -15 6 0 10 7 10 15 0 8 -4 15 -10 15 -5 0
-10 -7 -10 -15z"/>
<path d="M2740 2170 c-8 -5 -10 -10 -5 -10 6 0 17 5 25 10 8 5 11 10 5 10 -5
0 -17 -5 -25 -10z"/>
<path d="M4050 2165 c0 -8 5 -15 10 -15 6 0 10 7 10 15 0 8 -4 15 -10 15 -5 0
-10 -7 -10 -15z"/>
<path d="M4410 2165 c0 -8 5 -15 10 -15 6 0 10 7 10 15 0 8 -4 15 -10 15 -5 0
-10 -7 -10 -15z"/>
<path d="M3743 2143 c-13 -2 -23 -9 -23 -14 0 -15 63 -6 68 9 4 12 -4 13 -45
5z"/>
<path d="M3900 2135 c0 -9 9 -15 25 -15 14 0 25 5 25 11 0 5 -4 8 -9 4 -5 -3
-12 -1 -16 5 -9 15 -25 12 -25 -5z"/>
<path d="M3965 2130 c3 -5 10 -10 16 -10 5 0 9 5 9 10 0 6 -7 10 -16 10 -8 0
-12 -4 -9 -10z"/>
<path d="M4010 2130 c0 -5 5 -10 10 -10 6 0 10 5 10 10 0 6 -4 10 -10 10 -5 0
-10 -4 -10 -10z"/>
<path d="M4040 2133 c0 -6 5 -15 10 -18 6 -4 8 -11 5 -16 -4 -5 1 -9 9 -9 10
0 16 9 16 25 0 14 -4 25 -10 25 -5 0 -10 -6 -10 -12 0 -9 -4 -8 -10 2 -6 9
-10 10 -10 3z"/>
<path d="M3593 2114 c0 -14 23 -12 38 3 8 8 4 11 -13 10 -14 -1 -25 -7 -25
-13z"/>
<path d="M4414 2115 c3 -8 2 -15 -3 -15 -4 0 -8 -18 -8 -40 0 -27 5 -40 14
-40 9 0 13 16 13 55 0 34 -4 55 -11 55 -6 0 -9 -7 -5 -15z"/>
<path d="M2467 2114 c-8 -8 1 -24 14 -24 5 0 9 7 9 15 0 15 -12 20 -23 9z"/>
<path d="M3820 2105 c0 -8 9 -15 20 -15 11 0 20 7 20 15 0 8 -9 15 -20 15 -11
0 -20 -7 -20 -15z"/>
<path d="M4297 2113 c-13 -13 -7 -53 8 -53 18 0 20 16 3 23 -10 4 -10 6 0 6 6
1 12 8 12 16 0 16 -12 20 -23 8z"/>
<path d="M4350 2090 c0 -11 5 -20 10 -20 6 0 10 9 10 20 0 11 -4 20 -10 20 -5
0 -10 -9 -10 -20z"/>
<path d="M2692 2091 c-10 -6 -8 -10 9 -14 26 -7 34 -3 24 12 -7 13 -15 14 -33
2z"/>
<path d="M2741 2084 c0 -11 3 -14 6 -6 3 7 2 16 -1 19 -3 4 -6 -2 -5 -13z"/>
<path d="M2092 2060 c0 -19 2 -27 5 -17 2 9 2 25 0 35 -3 9 -5 1 -5 -18z"/>
<path d="M3444 2070 c0 -11 6 -20 13 -20 7 0 13 9 13 20 0 11 -6 20 -13 20 -7
0 -13 -9 -13 -20z"/>
<path d="M3396 2064 c-10 -25 -7 -34 9 -34 9 0 15 9 15 25 0 28 -15 34 -24 9z"/>
<path d="M2570 2050 c0 -5 4 -10 9 -10 6 0 13 5 16 10 3 6 -1 10 -9 10 -9 0
-16 -4 -16 -10z"/>
<path d="M3590 2045 c0 -8 5 -15 10 -15 6 0 10 7 10 15 0 8 -4 15 -10 15 -5 0
-10 -7 -10 -15z"/>
<path d="M3810 2035 c0 -8 4 -15 10 -15 5 0 7 7 4 15 -4 8 -8 15 -10 15 -2 0
-4 -7 -4 -15z"/>
<path d="M2530 2020 c0 -13 7 -20 20 -20 11 0 20 4 20 10 0 5 -9 14 -20 20
-17 9 -20 8 -20 -10z"/>
<path d="M3160 2021 c0 -17 18 -21 24 -6 3 9 0 15 -9 15 -8 0 -15 -4 -15 -9z"/>
<path d="M3447 2023 c-12 -11 -8 -23 8 -23 8 0 15 7 15 15 0 16 -12 20 -23 8z"/>
<path d="M3390 1984 c0 -31 23 -28 28 4 2 15 -2 22 -12 22 -11 0 -16 -9 -16
-26z"/>
<path d="M2080 1993 c0 -5 4 -13 8 -20 6 -9 11 -7 20 7 11 17 10 20 -8 20 -11
0 -20 -3 -20 -7z"/>
<path d="M3453 1979 c9 -5 17 -15 17 -21 0 -7 -5 -6 -15 2 -9 8 -15 9 -15 2 0
-6 5 -14 11 -17 7 -5 6 -12 -3 -23 -16 -19 -24 -72 -11 -72 11 0 33 49 33 72
0 10 7 18 15 18 8 0 15 4 15 8 0 14 -35 42 -51 42 -10 -1 -9 -3 4 -11z"/>
<path d="M3576 1964 c-9 -24 -7 -27 9 -10 17 17 19 26 6 26 -5 0 -12 -7 -15
-16z"/>
<path d="M4400 1970 c0 -5 5 -10 10 -10 6 0 10 5 10 10 0 6 -4 10 -10 10 -5 0
-10 -4 -10 -10z"/>
<path d="M4177 1963 c-13 -12 -7 -33 8 -33 8 0 15 9 15 20 0 20 -11 26 -23 13z"/>
<path d="M4295 1960 c-7 -12 2 -30 16 -30 5 0 9 9 9 20 0 21 -15 27 -25 10z"/>
<path d="M466 1951 c-4 -5 3 -7 16 -3 17 4 20 2 15 -13 -4 -9 -2 -24 4 -31 9
-11 8 -15 -4 -20 -9 -3 -22 -2 -29 2 -11 6 -11 4 0 -7 15 -16 49 1 43 23 -2 7
-4 22 -5 33 -1 21 -30 33 -40 16z"/>
<path d="M534 1946 c-10 -27 1 -71 18 -74 25 -5 43 35 29 64 -12 26 -39 32
-47 10z m38 -19 c6 -30 -1 -47 -18 -47 -9 0 -14 11 -14 35 0 40 25 49 32 12z"/>
<path d="M614 1946 c-10 -27 1 -71 18 -74 24 -5 42 42 28 69 -12 22 -38 25
-46 5z m38 -8 c8 -22 -4 -58 -18 -58 -9 0 -14 12 -14 35 0 34 23 51 32 23z"/>
<path d="M3168 1953 c7 -3 16 -2 19 1 4 3 -2 6 -13 5 -11 0 -14 -3 -6 -6z"/>
<path d="M4060 1945 c0 -8 4 -15 10 -15 5 0 7 7 4 15 -4 8 -8 15 -10 15 -2 0
-4 -7 -4 -15z"/>
<path d="M2085 1940 c-3 -5 1 -10 9 -10 9 0 16 5 16 10 0 6 -4 10 -9 10 -6 0
-13 -4 -16 -10z"/>
<path d="M4399 1935 c-6 -70 -3 -95 11 -95 9 0 16 9 17 20 1 11 -3 20 -8 20
-6 0 -7 14 -3 35 4 23 2 35 -5 35 -6 0 -12 -7 -12 -15z"/>
<path d="M3380 1918 c1 -13 1 -25 0 -28 -9 -18 -4 -60 7 -60 8 0 13 13 13 33
0 17 3 42 6 55 5 16 2 22 -11 22 -11 0 -16 -7 -15 -22z"/>
<path d="M3160 1920 c0 -5 7 -7 15 -4 8 4 15 8 15 10 0 2 -7 4 -15 4 -8 0 -15
-4 -15 -10z"/>
<path d="M2089 1918 c0 -2 -2 -22 -4 -46 -2 -29 1 -42 8 -39 7 2 12 18 12 35
0 18 3 32 8 32 4 0 5 5 2 10 -5 9 -23 14 -26 8z"/>
<path d="M3590 1875 c0 -8 5 -15 10 -15 6 0 10 7 10 15 0 8 -4 15 -10 15 -5 0
-10 -7 -10 -15z"/>
<path d="M3158 1873 c7 -3 16 -2 19 1 4 3 -2 6 -13 5 -11 0 -14 -3 -6 -6z"/>
<path d="M4040 1870 c0 -5 7 -10 15 -10 8 0 15 5 15 10 0 6 -7 10 -15 10 -8 0
-15 -4 -15 -10z"/>
<path d="M3157 1834 c-8 -8 1 -24 14 -24 5 0 9 7 9 15 0 15 -12 20 -23 9z"/>
<path d="M2091 1821 c-10 -6 -10 -10 -1 -16 13 -8 24 -1 19 14 -3 6 -10 7 -18
2z"/>
<path d="M4397 1816 c-6 -14 1 -26 14 -26 4 0 7 9 6 20 -1 23 -12 26 -20 6z"/>
<path d="M3460 1806 c0 -9 7 -16 16 -16 17 0 14 22 -4 28 -7 2 -12 -3 -12 -12z"/>
<path d="M3563 1794 c-29 -32 -29 -34 2 -34 15 0 25 6 25 14 0 8 5 16 12 18
12 4 3 28 -10 28 -4 0 -17 -12 -29 -26z"/>
<path d="M3150 1800 c0 -6 7 -10 15 -10 8 0 15 2 15 4 0 2 -7 6 -15 10 -8 3
-15 1 -15 -4z"/>
<path d="M3805 1800 c3 -5 8 -10 11 -10 2 0 4 5 4 10 0 6 -5 10 -11 10 -5 0
-7 -4 -4 -10z"/>
<path d="M4040 1795 c0 -17 2 -18 24 -9 23 9 20 24 -4 24 -11 0 -20 -7 -20
-15z"/>
<path d="M4160 1795 c0 -8 7 -15 15 -15 8 0 15 7 15 15 0 8 -7 15 -15 15 -8 0
-15 -7 -15 -15z"/>
<path d="M4290 1783 c0 -22 2 -25 10 -13 13 20 13 40 0 40 -5 0 -10 -12 -10
-27z"/>
<path d="M4350 1779 c0 -11 5 -17 10 -14 6 3 10 13 10 21 0 8 -4 14 -10 14 -5
0 -10 -9 -10 -21z"/>
<path d="M2085 1780 c-8 -13 5 -13 25 0 13 8 13 10 -2 10 -9 0 -20 -4 -23 -10z"/>
<path d="M3700 1779 c0 -4 6 -10 13 -13 9 -5 9 -7 -1 -12 -15 -7 -6 -24 14
-24 10 0 13 7 8 25 -5 20 -3 24 10 19 9 -3 16 -1 16 4 0 6 -13 10 -30 10 -16
-1 -30 -4 -30 -9z"/>
<path d="M3950 1775 c0 -8 9 -15 20 -15 12 0 20 7 20 18 0 14 -2 15 -10 2 -6
-10 -10 -11 -10 -2 0 6 -4 12 -10 12 -5 0 -10 -7 -10 -15z"/>
<path d="M4000 1774 c0 -9 5 -14 12 -12 18 6 21 28 4 28 -9 0 -16 -7 -16 -16z"/>
<path d="M3860 1770 c0 -5 5 -10 10 -10 6 0 10 5 10 10 0 6 -4 10 -10 10 -5 0
-10 -4 -10 -10z"/>
<path d="M4392 1735 c1 -22 5 -32 12 -28 6 4 5 -1 -3 -10 -7 -10 -9 -17 -3
-17 7 0 7 -10 -1 -30 -6 -16 -8 -32 -4 -36 14 -15 22 9 25 82 4 62 2 74 -12
74 -11 0 -15 -9 -14 -35z"/>
<path d="M2085 1731 c3 -36 12 -51 30 -51 9 0 12 -6 9 -15 -4 -8 -1 -15 6 -15
6 0 10 11 8 28 -2 17 -9 27 -20 27 -9 0 -20 4 -25 8 -4 5 -1 7 7 5 16 -3 21
23 5 34 -18 13 -23 9 -20 -21z"/>
<path d="M3158 1753 c7 -3 16 -2 19 1 4 3 -2 6 -13 5 -11 0 -14 -3 -6 -6z"/>
<path d="M3983 1753 c-22 -8 -14 -23 12 -23 14 0 25 4 25 9 0 11 -21 19 -37
14z"/>
<path d="M3540 1736 c0 -9 5 -16 10 -16 6 0 10 4 10 9 0 6 -4 13 -10 16 -5 3
-10 -1 -10 -9z"/>
<path d="M3590 1735 c0 -8 5 -15 10 -15 6 0 10 7 10 15 0 8 -4 15 -10 15 -5 0
-10 -7 -10 -15z"/>
<path d="M3892 1743 c-15 -6 -6 -23 14 -23 8 0 14 7 14 15 0 15 -6 17 -28 8z"/>
<path d="M3150 1695 c0 -14 -4 -25 -9 -25 -5 0 -11 -9 -14 -20 -3 -11 -13 -20
-24 -20 -13 0 -10 -4 11 -15 27 -14 71 -12 62 3 -2 4 29 6 70 4 51 -3 74 0 74
8 0 6 -4 8 -10 5 -5 -3 -10 -1 -10 4 0 6 -13 11 -30 11 -17 0 -30 -5 -30 -12
0 -9 -4 -8 -10 2 -9 13 -10 13 -10 0 0 -12 -2 -13 -9 -1 -5 8 -16 11 -29 7
-12 -4 -23 -2 -28 5 -4 7 -3 9 4 5 6 -3 14 -1 18 5 3 6 0 15 -7 20 -10 6 -11
9 -1 9 17 0 15 17 -3 24 -11 4 -15 -1 -15 -19z"/>
<path d="M2443 1650 c3 -10 0 -21 -7 -24 -6 -2 4 -3 22 -3 22 2 31 6 27 15 -3
8 -5 19 -6 25 0 7 -4 3 -9 -8 -7 -17 -9 -17 -9 -2 -1 9 -6 17 -12 17 -6 0 -9
-9 -6 -20z"/>
<path d="M2490 1658 c1 -31 17 -35 128 -36 103 0 112 2 112 19 0 11 -7 19 -16
19 -8 0 -12 -4 -9 -10 3 -5 1 -10 -4 -10 -6 0 -11 6 -12 13 0 6 -4 3 -9 -8 -7
-17 -9 -17 -9 -2 -1 9 -5 17 -10 17 -5 0 -12 -8 -14 -17 -4 -16 -5 -15 -6 1
-1 20 -1 20 -16 0 -13 -16 -14 -16 -9 -1 3 9 1 17 -5 17 -6 0 -11 -8 -12 -17
0 -15 -2 -15 -9 2 l-9 20 -1 -20 c-1 -19 -2 -18 -10 3 -11 26 -30 29 -31 5 0
-13 -2 -14 -6 -4 -5 11 -7 11 -14 0 -7 -11 -9 -10 -9 4 0 9 -4 17 -10 17 -5 0
-10 -6 -10 -12z"/>
<path d="M3111 1654 c0 -11 3 -14 6 -6 3 7 2 16 -1 19 -3 4 -6 -2 -5 -13z"/>
<path d="M780 1643 c0 -15 -2 -16 -10 -3 -8 12 -10 11 -10 -7 0 -25 10 -29 28
-11 15 15 16 38 2 38 -5 0 -10 -8 -10 -17z"/>
<path d="M830 1651 c0 -6 5 -13 10 -16 6 -3 10 1 10 9 0 9 -4 16 -10 16 -5 0
-10 -4 -10 -9z"/>
<path d="M861 1644 c0 -11 3 -14 6 -6 3 7 2 16 -1 19 -3 4 -6 -2 -5 -13z"/>
<path d="M880 1645 c0 -8 5 -15 10 -15 6 0 10 7 10 15 0 8 -4 15 -10 15 -5 0
-10 -7 -10 -15z"/>
<path d="M910 1648 c0 -13 8 -18 30 -18 17 0 30 5 30 11 0 5 -4 8 -9 5 -5 -4
-12 0 -15 6 -5 10 -7 10 -12 -1 -5 -11 -8 -11 -15 0 -7 11 -9 10 -9 -3z"/>
<path d="M986 1651 c-4 -7 -5 -15 -2 -18 9 -9 19 4 14 18 -4 11 -6 11 -12 0z"/>
<path d="M1100 1640 c0 -5 5 -10 10 -10 6 0 10 5 10 10 0 6 -4 10 -10 10 -5 0
-10 -4 -10 -10z"/>
<path d="M1150 1640 c0 -5 5 -10 10 -10 6 0 10 5 10 10 0 6 -4 10 -10 10 -5 0
-10 -4 -10 -10z"/>
<path d="M1200 1640 c0 -5 5 -10 10 -10 6 0 10 5 10 10 0 6 -4 10 -10 10 -5 0
-10 -4 -10 -10z"/>
<path d="M1250 1641 c0 -6 5 -13 10 -16 6 -3 10 1 10 9 0 9 -4 16 -10 16 -5 0
-10 -4 -10 -9z"/>
<path d="M1300 1634 c0 -8 5 -12 10 -9 6 3 10 10 10 16 0 5 -4 9 -10 9 -5 0
-10 -7 -10 -16z"/>
<path d="M1350 1640 c0 -5 5 -10 10 -10 6 0 10 5 10 10 0 6 -4 10 -10 10 -5 0
-10 -4 -10 -10z"/>
<path d="M1400 1640 c0 -5 5 -10 10 -10 6 0 10 5 10 10 0 6 -4 10 -10 10 -5 0
-10 -4 -10 -10z"/>
<path d="M1500 1634 c0 -8 5 -12 10 -9 6 3 10 10 10 16 0 5 -4 9 -10 9 -5 0
-10 -7 -10 -16z"/>
<path d="M1550 1640 c0 -5 5 -10 10 -10 6 0 10 5 10 10 0 6 -4 10 -10 10 -5 0
-10 -4 -10 -10z"/>
<path d="M1600 1634 c0 -8 5 -12 10 -9 6 4 8 11 5 16 -9 14 -15 11 -15 -7z"/>
<path d="M1631 1634 c0 -11 3 -14 6 -6 3 7 2 16 -1 19 -3 4 -6 -2 -5 -13z"/>
<path d="M1650 1635 c0 -8 5 -15 10 -15 6 0 10 7 10 15 0 8 -4 15 -10 15 -5 0
-10 -7 -10 -15z"/>
<path d="M1681 1634 c0 -11 3 -14 6 -6 3 7 2 16 -1 19 -3 4 -6 -2 -5 -13z"/>
<path d="M1700 1636 c0 -9 5 -16 10 -16 6 0 10 4 10 9 0 6 -4 13 -10 16 -5 3
-10 -1 -10 -9z"/>
<path d="M1731 1634 c0 -11 3 -14 6 -6 3 7 2 16 -1 19 -3 4 -6 -2 -5 -13z"/>
<path d="M1750 1635 c0 -8 5 -15 10 -15 6 0 10 7 10 15 0 8 -4 15 -10 15 -5 0
-10 -7 -10 -15z"/>
<path d="M1800 1635 c0 -9 9 -15 25 -15 17 0 25 5 25 18 0 14 -2 15 -10 2 -6
-10 -10 -11 -10 -2 0 6 -7 12 -15 12 -8 0 -15 -7 -15 -15z"/>
<path d="M1880 1636 c0 -9 7 -16 16 -16 17 0 14 22 -4 28 -7 2 -12 -3 -12 -12z"/>
<path d="M2073 1643 c-17 -6 -17 -23 0 -23 8 0 20 -11 27 -25 13 -25 30 -25
30 1 0 8 -8 14 -17 14 -14 1 -13 4 6 14 20 11 21 14 6 19 -19 8 -34 8 -52 0z"/>
<path d="M3330 1641 c0 -5 5 -13 10 -16 6 -3 10 0 10 7 0 10 3 9 11 -2 9 -13
10 -13 6 0 -4 17 -37 27 -37 11z"/>
<path d="M3440 1639 c0 -5 -4 -7 -10 -4 -5 3 -10 1 -10 -4 0 -6 8 -11 18 -11
10 0 19 7 19 15 0 8 -4 15 -9 15 -4 0 -8 -5 -8 -11z"/>
<path d="M3483 1643 c-7 -3 -13 -9 -13 -14 0 -6 4 -8 9 -4 5 3 12 1 16 -4 7
-12 35 -3 35 12 0 6 -3 7 -7 4 -3 -4 -11 -3 -17 2 -6 4 -17 6 -23 4z"/>
<path d="M3540 1635 c0 -8 9 -15 20 -15 24 0 27 15 4 24 -22 9 -24 8 -24 -9z"/>
<path d="M2030 1630 c0 -5 5 -10 10 -10 6 0 10 5 10 10 0 6 -4 10 -10 10 -5 0
-10 -4 -10 -10z"/>
<path d="M3380 1630 c0 -5 7 -10 15 -10 8 0 15 5 15 10 0 6 -7 10 -15 10 -8 0
-15 -4 -15 -10z"/>
<path d="M3610 1630 c0 -5 5 -10 10 -10 6 0 10 5 10 10 0 6 -4 10 -10 10 -5 0
-10 -4 -10 -10z"/>
<path d="M3660 1630 c0 -5 5 -10 10 -10 6 0 10 5 10 10 0 6 -4 10 -10 10 -5 0
-10 -4 -10 -10z"/>
<path d="M3710 1630 c0 -5 5 -10 10 -10 6 0 10 5 10 10 0 6 -4 10 -10 10 -5 0
-10 -4 -10 -10z"/>
<path d="M3760 1630 c0 -5 5 -10 10 -10 6 0 10 5 10 10 0 6 -4 10 -10 10 -5 0
-10 -4 -10 -10z"/>
<path d="M3810 1626 c0 -9 16 -14 55 -15 47 -1 54 1 43 13 -8 9 -15 10 -19 4
-4 -6 -9 -5 -12 3 -4 12 -7 11 -16 -1 -10 -13 -11 -13 -11 0 0 13 -1 13 -10 0
-6 -10 -10 -11 -10 -2 0 6 -4 12 -10 12 -5 0 -10 -6 -10 -14z"/>
<path d="M3942 1625 c-11 -13 -9 -15 8 -15 11 0 20 7 20 15 0 19 -11 19 -28 0z"/>
<path d="M3981 1624 c0 -11 3 -14 6 -6 3 7 2 16 -1 19 -3 4 -6 -2 -5 -13z"/>
<path d="M4000 1625 c0 -8 5 -15 10 -15 6 0 10 7 10 15 0 8 -4 15 -10 15 -5 0
-10 -7 -10 -15z"/>
<path d="M4031 1624 c0 -11 3 -14 6 -6 3 7 2 16 -1 19 -3 4 -6 -2 -5 -13z"/>
<path d="M4050 1625 c0 -8 5 -15 10 -15 6 0 10 7 10 15 0 8 -4 15 -10 15 -5 0
-10 -7 -10 -15z"/>
<path d="M4081 1624 c0 -11 3 -14 6 -6 3 7 2 16 -1 19 -3 4 -6 -2 -5 -13z"/>
<path d="M4100 1625 c0 -8 5 -15 10 -15 6 0 10 7 10 15 0 8 -4 15 -10 15 -5 0
-10 -7 -10 -15z"/>
<path d="M4131 1624 c0 -11 3 -14 6 -6 3 7 2 16 -1 19 -3 4 -6 -2 -5 -13z"/>
<path d="M4150 1625 c0 -12 13 -15 60 -15 33 0 60 4 60 9 0 15 -29 21 -55 11
-15 -6 -26 -6 -30 0 -10 16 -35 12 -35 -5z"/>
<path d="M4300 1620 c0 -5 5 -10 10 -10 6 0 10 5 10 10 0 6 -4 10 -10 10 -5 0
-10 -4 -10 -10z"/>
<path d="M2092 1540 c0 -25 -1 -49 -2 -55 -6 -23 1 -45 13 -45 16 0 19 30 3
30 -6 0 -3 5 7 11 9 5 17 15 17 21 0 6 -8 17 -17 24 -17 13 -17 13 0 14 9 0
17 4 17 10 0 5 -6 7 -14 4 -8 -3 -16 2 -19 13 -3 10 -5 -2 -5 -27z"/>
<path d="M2212 1568 c6 -18 28 -21 28 -4 0 9 -7 16 -16 16 -9 0 -14 -5 -12
-12z"/>
<path d="M4310 1525 c0 -34 12 -46 25 -25 3 6 2 10 -3 10 -5 0 -7 11 -4 25 2
15 0 25 -7 25 -6 0 -11 -16 -11 -35z"/>
<path d="M4383 1537 c-23 -25 -20 -47 5 -47 15 0 15 2 2 10 -11 7 -11 10 -2
10 7 0 10 5 6 11 -3 6 0 15 7 20 7 4 11 10 8 13 -3 3 -15 -4 -26 -17z"/>
<path d="M758 1533 c7 -3 16 -2 19 1 4 3 -2 6 -13 5 -11 0 -14 -3 -6 -6z"/>
<path d="M2200 1500 c0 -5 7 -10 15 -10 8 0 15 5 15 10 0 6 -7 10 -15 10 -8 0
-15 -4 -15 -10z"/>
<path d="M2250 1480 c0 -12 7 -20 18 -20 14 0 15 2 2 10 -10 6 -11 10 -2 10 6
0 12 5 12 10 0 6 -7 10 -15 10 -8 0 -15 -9 -15 -20z"/>
<path d="M2207 1474 c-8 -8 1 -24 14 -24 5 0 9 7 9 15 0 15 -12 20 -23 9z"/>
<path d="M4390 1460 c0 -13 6 -20 18 -19 9 0 12 3 5 5 -7 3 -9 12 -6 20 3 8 0
14 -6 14 -6 0 -11 -9 -11 -20z"/>
<path d="M460 1461 c0 -5 9 -7 20 -4 13 4 20 0 20 -9 0 -8 -9 -23 -20 -33 -28
-26 -25 -35 13 -34 l32 1 -29 7 -28 6 21 19 c30 27 28 56 -4 56 -14 0 -25 -4
-25 -9z"/>
<path d="M534 1457 c-11 -31 0 -72 20 -72 11 0 20 6 22 13 1 7 0 8 -3 2 -12
-25 -33 -9 -33 25 0 34 21 50 33 25 3 -6 4 -5 3 2 -4 19 -35 22 -42 5z"/>
<path d="M614 1456 c-11 -30 0 -71 20 -71 23 0 36 32 25 63 -9 25 -37 30 -45
8z m36 -31 c0 -24 -5 -35 -15 -35 -10 0 -15 11 -15 35 0 24 5 35 15 35 10 0
15 -11 15 -35z"/>
<path d="M3150 1440 c-12 -7 -12 -12 -3 -21 15 -15 26 -7 21 15 -2 11 -7 13
-18 6z"/>
<path d="M3500 1430 c0 -5 5 -10 10 -10 6 0 10 5 10 10 0 6 -4 10 -10 10 -5 0
-10 -4 -10 -10z"/>
<path d="M3770 1430 c0 -5 7 -10 15 -10 8 0 15 5 15 10 0 6 -7 10 -15 10 -8 0
-15 -4 -15 -10z"/>
<path d="M4230 1425 c0 -8 7 -15 15 -15 8 0 15 7 15 15 0 8 -7 15 -15 15 -8 0
-15 -7 -15 -15z"/>
<path d="M2104 1414 c3 -8 2 -13 -2 -10 -5 3 -9 -10 -9 -29 0 -29 4 -34 31
-39 23 -5 27 -9 17 -15 -8 -5 -11 -16 -8 -26 4 -9 11 -13 17 -10 6 4 8 11 5
16 -4 5 -1 9 4 9 6 0 11 11 11 25 0 16 -6 25 -15 25 -8 0 -15 -4 -15 -10 0 -5
-8 -2 -18 8 -17 16 -17 18 0 36 24 26 23 36 -3 36 -15 0 -19 -5 -15 -16z"/>
<path d="M2202 1418 c7 -19 38 -22 38 -4 0 10 -9 16 -21 16 -12 0 -19 -5 -17
-12z"/>
<path d="M4390 1395 c0 -25 4 -35 16 -35 10 0 12 5 7 13 -4 6 -6 22 -4 35 1
12 -2 22 -8 22 -6 0 -11 -16 -11 -35z"/>
<path d="M3140 1390 c0 -5 5 -10 11 -10 5 0 7 5 4 10 -3 6 -8 10 -11 10 -2 0
-4 -4 -4 -10z"/>
<path d="M3750 1360 c0 -11 -7 -20 -15 -20 -8 0 -15 -7 -15 -15 0 -25 24 -17
38 12 15 33 15 43 2 43 -5 0 -10 -9 -10 -20z"/>
<path d="M750 1360 c0 -5 5 -10 10 -10 6 0 10 5 10 10 0 6 -4 10 -10 10 -5 0
-10 -4 -10 -10z"/>
<path d="M3500 1358 c0 -6 9 -12 20 -15 11 -3 20 -11 20 -17 0 -15 37 -18 46
-5 3 6 -3 13 -15 16 -12 3 -21 11 -21 18 0 7 -11 13 -25 13 -14 0 -25 -5 -25
-10z"/>
<path d="M3980 1356 c0 -8 -10 -16 -22 -18 -12 -2 -24 -10 -26 -18 -4 -12 -3
-13 10 -2 9 7 23 10 32 6 9 -3 16 -1 16 4 0 6 9 14 20 17 28 9 25 25 -5 25
-15 0 -25 -6 -25 -14z"/>
<path d="M4230 1355 c0 -8 7 -15 15 -15 8 0 15 7 15 15 0 8 -7 15 -15 15 -8 0
-15 -7 -15 -15z"/>
<path d="M3140 1315 c0 -25 5 -45 10 -45 6 0 10 20 10 45 0 25 -4 45 -10 45
-5 0 -10 -20 -10 -45z"/>
<path d="M3781 1344 c-7 -9 -10 -18 -7 -21 3 -4 6 -3 6 2 0 4 6 2 14 -5 8 -6
12 -18 9 -26 -3 -9 2 -14 16 -14 12 0 21 5 21 10 0 6 -5 10 -12 10 -6 0 -8 3
-4 8 4 4 13 7 19 7 5 0 12 6 15 13 2 7 -6 12 -20 12 -13 0 -28 4 -33 9 -6 6
-15 4 -24 -5z"/>
<path d="M4130 1333 c0 -15 2 -16 10 -3 6 10 10 11 10 3 0 -7 5 -13 10 -13 6
0 10 7 10 15 0 8 -9 15 -20 15 -12 0 -20 -7 -20 -17z"/>
<path d="M3300 1324 c0 -8 5 -12 10 -9 6 3 10 10 10 16 0 5 -4 9 -10 9 -5 0
-10 -7 -10 -16z"/>
<path d="M3326 1325 c-3 -8 -1 -15 4 -15 6 0 10 7 10 15 0 8 -2 15 -4 15 -2 0
-6 -7 -10 -15z"/>
<path d="M3350 1325 c0 -8 5 -15 10 -15 6 0 10 7 10 15 0 8 -4 15 -10 15 -5 0
-10 -7 -10 -15z"/>
<path d="M3443 1314 c-29 -31 -29 -34 2 -34 25 0 36 19 13 21 -7 0 -1 5 15 11
15 5 25 14 21 19 -9 15 -28 9 -51 -17z"/>
<path d="M3600 1324 c0 -9 5 -14 12 -12 18 6 21 28 4 28 -9 0 -16 -7 -16 -16z"/>
<path d="M3662 1328 c6 -18 28 -21 28 -4 0 9 -7 16 -16 16 -9 0 -14 -5 -12
-12z"/>
<path d="M4031 1324 c0 -11 3 -14 6 -6 3 7 2 16 -1 19 -3 4 -6 -2 -5 -13z"/>
<path d="M4050 1325 c0 -8 5 -15 10 -15 6 0 10 7 10 15 0 8 -4 15 -10 15 -5 0
-10 -7 -10 -15z"/>
<path d="M4388 1313 c-3 -16 -8 -35 -12 -44 -5 -12 -1 -18 13 -22 23 -6 29 8
9 17 -10 3 -9 8 3 15 11 7 15 19 11 36 -6 33 -19 32 -24 -2z"/>
<path d="M4140 1295 c0 -10 10 -15 30 -15 35 0 40 15 8 24 -34 9 -38 8 -38 -9z"/>
<path d="M3300 1290 c0 -5 5 -10 10 -10 6 0 10 5 10 10 0 6 -4 10 -10 10 -5 0
-10 -4 -10 -10z"/>
<path d="M3670 1290 c0 -5 5 -10 10 -10 6 0 10 5 10 10 0 6 -4 10 -10 10 -5 0
-10 -4 -10 -10z"/>
<path d="M3950 1290 c0 -5 5 -10 10 -10 6 0 10 5 10 10 0 6 -4 10 -10 10 -5 0
-10 -4 -10 -10z"/>
<path d="M4030 1290 c0 -5 14 -10 30 -10 17 0 30 5 30 10 0 6 -13 10 -30 10
-16 0 -30 -4 -30 -10z"/>
<path d="M4316 1255 c4 -8 10 -15 15 -15 5 0 9 7 9 15 0 8 -7 15 -15 15 -9 0
-12 -6 -9 -15z"/>
<path d="M3287 1233 c-12 -11 -8 -23 8 -23 8 0 15 7 15 15 0 16 -12 20 -23 8z"/>
<path d="M3515 1219 c-4 -6 -4 -13 -1 -16 8 -8 36 5 36 17 0 13 -27 13 -35 -1z"/>
<path d="M3740 1220 c0 -5 5 -10 10 -10 6 0 10 5 10 10 0 6 -4 10 -10 10 -5 0
-10 -4 -10 -10z"/>
<path d="M3982 1218 c5 -15 48 -24 48 -10 0 10 -23 22 -42 22 -5 0 -8 -6 -6
-12z"/>
<path d="M4230 1215 c0 -8 5 -15 10 -15 6 0 10 7 10 15 0 8 -4 15 -10 15 -5 0
-10 -7 -10 -15z"/>
<path d="M4393 1205 c0 -14 3 -25 8 -25 5 0 9 11 9 25 0 14 -4 25 -9 25 -5 0
-8 -11 -8 -25z"/>
<path d="M3140 1200 c0 -5 5 -10 10 -10 6 0 10 5 10 10 0 6 -4 10 -10 10 -5 0
-10 -4 -10 -10z"/>
<path d="M3143 1160 c1 -11 5 -20 9 -20 4 0 8 9 8 20 0 11 -4 20 -9 20 -6 0
-9 -9 -8 -20z"/>
<path d="M4400 1160 c13 -8 12 -10 -2 -10 -14 0 -18 -8 -18 -35 0 -19 5 -35
10 -35 6 0 13 0 18 0 10 1 2 44 -10 51 -5 3 -2 9 7 13 18 6 12 26 -8 26 -7 0
-6 -4 3 -10z"/>
<path d="M3296 1151 c-4 -6 0 -18 9 -27 21 -22 26 -15 11 15 -9 15 -16 20 -20
12z"/>
<path d="M3740 1145 c0 -16 9 -19 34 -9 25 9 19 24 -9 24 -16 0 -25 -6 -25
-15z"/>
<path d="M4000 1144 c0 -9 -5 -12 -11 -8 -7 4 -10 1 -7 -7 8 -23 43 -17 46 9
2 15 -2 22 -12 22 -9 0 -16 -7 -16 -16z"/>
<path d="M2149 1138 c-9 -90 -7 -118 9 -118 15 0 15 2 2 10 -10 6 -11 10 -2
10 6 0 12 7 12 15 0 8 -6 15 -12 15 -10 0 -10 2 -2 8 17 10 22 64 7 69 -7 3
-14 -1 -14 -9z"/>
<path d="M4220 1135 c0 -9 6 -12 15 -9 8 4 15 10 15 15 0 5 -7 9 -15 9 -8 0
-15 -7 -15 -15z"/>
<path d="M3340 1124 c0 -9 7 -14 17 -12 25 5 28 28 4 28 -12 0 -21 -6 -21 -16z"/>
<path d="M3498 1132 c-22 -4 -23 -18 -3 -26 9 -3 18 1 22 10 7 18 3 21 -19 16z"/>
<path d="M3430 1120 c0 -5 5 -10 10 -10 6 0 10 5 10 10 0 6 -4 10 -10 10 -5 0
-10 -4 -10 -10z"/>
<path d="M3586 1115 c-3 -8 -1 -15 4 -15 6 0 10 7 10 15 0 8 -2 15 -4 15 -2 0
-6 -7 -10 -15z"/>
<path d="M3610 1115 c0 -9 9 -15 25 -15 28 0 34 15 9 24 -25 10 -34 7 -34 -9z"/>
<path d="M3681 1114 c0 -11 3 -14 6 -6 3 7 2 16 -1 19 -3 4 -6 -2 -5 -13z"/>
<path d="M3870 1115 c0 -9 9 -15 25 -15 14 0 25 5 25 11 0 5 -4 7 -10 4 -5 -3
-10 -1 -10 4 0 6 -7 11 -15 11 -8 0 -15 -7 -15 -15z"/>
<path d="M4090 1115 c0 -8 5 -15 10 -15 6 0 10 7 10 15 0 8 -4 15 -10 15 -5 0
-10 -7 -10 -15z"/>
<path d="M4120 1114 c0 -8 5 -12 10 -9 6 4 8 11 5 16 -9 14 -15 11 -15 -7z"/>
<path d="M3127 1100 c-4 -17 -2 -20 16 -15 19 5 20 5 5 -5 -23 -14 -24 -50 -2
-50 13 0 14 3 4 15 -10 12 -9 16 4 21 21 8 21 34 0 34 -8 0 -12 5 -9 10 3 6 2
10 -3 10 -5 0 -12 -9 -15 -20z"/>
<path d="M2785 1100 c-3 -5 -1 -10 4 -10 6 0 11 5 11 10 0 6 -2 10 -4 10 -3 0
-8 -4 -11 -10z"/>
<path d="M2811 1098 c-1 -10 -8 -18 -16 -18 -8 0 -15 -4 -15 -10 0 -14 27 -13
32 1 5 14 68 20 68 7 0 -4 16 -8 35 -8 27 0 35 4 35 18 0 13 -2 14 -9 3 -7
-11 -9 -11 -14 0 -4 12 -7 11 -16 -1 -10 -13 -13 -12 -27 5 -12 16 -16 17 -23
6 -7 -11 -9 -11 -14 0 -5 12 -7 12 -15 0 -8 -11 -10 -11 -15 0 -4 10 -6 9 -6
-3z"/>
<path d="M3048 1103 c-10 -2 -18 -10 -18 -16 0 -7 -4 -6 -10 3 -9 13 -11 13
-20 0 -6 -10 -10 -11 -10 -2 0 6 -7 12 -15 12 -8 0 -15 -7 -15 -15 0 -25 123
-17 128 8 3 17 -6 19 -40 10z"/>
<path d="M3307 1094 c-12 -12 4 -24 34 -24 31 0 39 14 13 24 -20 8 -39 8 -47
0z"/>
<path d="M1997 1083 c-4 -3 -7 -17 -7 -30 0 -33 24 -24 28 10 3 26 -7 35 -21
20z"/>
<path d="M2037 1083 c-4 -3 -7 -11 -7 -17 0 -6 5 -4 10 4 6 10 10 11 10 3 0
-7 11 -13 25 -13 16 0 25 6 25 15 0 15 -50 22 -63 8z"/>
<path d="M3470 1080 c0 -5 9 -10 20 -10 11 0 20 5 20 10 0 6 -9 10 -20 10 -11
0 -20 -4 -20 -10z"/>
<path d="M3610 1075 c0 -9 9 -15 25 -15 28 0 34 15 9 24 -25 10 -34 7 -34 -9z"/>
<path d="M4030 1080 c0 -5 7 -10 16 -10 8 0 12 5 9 10 -3 6 -10 10 -16 10 -5
0 -9 -4 -9 -10z"/>
<path d="M3577 1069 c6 -6 9 -18 6 -25 -3 -9 2 -14 12 -14 12 0 15 5 11 16 -3
9 -6 20 -6 25 0 5 -8 9 -17 9 -13 0 -14 -3 -6 -11z"/>
<path d="M3906 1063 c2 -6 -4 -17 -12 -23 -20 -17 -17 -30 7 -30 11 0 17 5 14
10 -3 6 1 10 9 10 9 0 16 7 16 15 0 8 -6 15 -14 15 -8 0 -16 3 -19 8 -2 4 -2
2 -1 -5z"/>
<path d="M4120 1070 c0 -5 5 -10 11 -10 5 0 7 5 4 10 -3 6 -8 10 -11 10 -2 0
-4 -4 -4 -10z"/>
<path d="M3447 1053 c-13 -12 -7 -23 13 -23 11 0 20 7 20 15 0 15 -21 21 -33
8z"/>
<path d="M4008 1046 c-26 -19 -22 -25 15 -24 55 1 77 8 77 23 0 18 -5 18 -30
5 -13 -7 -21 -7 -25 0 -8 13 -16 12 -37 -4z"/>
<path d="M3175 1040 c-3 -5 -2 -10 4 -10 5 0 13 5 16 10 3 6 2 10 -4 10 -5 0
-13 -4 -16 -10z"/>
<path d="M3215 1040 c-3 -5 3 -10 14 -10 12 0 21 5 21 10 0 6 -6 10 -14 10 -8
0 -18 -4 -21 -10z"/>
<path d="M3280 1040 c0 -5 5 -10 10 -10 6 0 10 5 10 10 0 6 -4 10 -10 10 -5 0
-10 -4 -10 -10z"/>
<path d="M3330 1040 c0 -5 5 -10 10 -10 6 0 10 5 10 10 0 6 -4 10 -10 10 -5 0
-10 -4 -10 -10z"/>
<path d="M3380 1040 c0 -5 5 -10 10 -10 6 0 10 5 10 10 0 6 -4 10 -10 10 -5 0
-10 -4 -10 -10z"/>
<path d="M3495 1040 c3 -5 10 -10 16 -10 5 0 9 5 9 10 0 6 -7 10 -16 10 -8 0
-12 -4 -9 -10z"/>
<path d="M3620 1040 c0 -5 5 -10 10 -10 6 0 10 5 10 10 0 6 -4 10 -10 10 -5 0
-10 -4 -10 -10z"/>
<path d="M3655 1040 c-3 -5 -1 -10 4 -10 6 0 11 5 11 10 0 6 -2 10 -4 10 -3 0
-8 -4 -11 -10z"/>
<path d="M3720 1040 c0 -5 7 -10 15 -10 8 0 15 5 15 10 0 6 -7 10 -15 10 -8 0
-15 -4 -15 -10z"/>
<path d="M3777 1044 c-10 -11 3 -24 23 -24 13 0 17 5 14 15 -6 15 -26 20 -37
9z"/>
<path d="M4174 1041 c-14 -14 3 -19 56 -19 39 1 59 5 57 12 -3 10 -103 16
-113 7z"/>
<path d="M4375 1039 c-4 -6 -4 -13 -1 -16 8 -8 36 5 36 17 0 13 -27 13 -35 -1z"/>
<path d="M2070 1017 c0 -23 17 -47 33 -47 5 0 7 6 4 13 -3 9 9 12 45 11 31 0
47 3 45 10 -2 6 -13 9 -23 7 -47 -9 -74 -4 -74 14 0 8 -7 15 -15 15 -9 0 -15
-9 -15 -23z"/>
<path d="M2788 1033 c7 -3 16 -2 19 1 4 3 -2 6 -13 5 -11 0 -14 -3 -6 -6z"/>
<path d="M4320 1030 c0 -5 5 -10 10 -10 6 0 10 5 10 10 0 6 -4 10 -10 10 -5 0
-10 -4 -10 -10z"/>
<path d="M2230 1006 c0 -9 5 -16 10 -16 6 0 10 4 10 9 0 6 -4 13 -10 16 -5 3
-10 -1 -10 -9z"/>
<path d="M2280 1006 c0 -9 5 -16 10 -16 6 0 10 4 10 9 0 6 -4 13 -10 16 -5 3
-10 -1 -10 -9z"/>
<path d="M2773 1013 c-14 -5 -18 -33 -5 -33 12 0 27 14 30 28 2 12 -4 14 -25
5z"/>
<path d="M2610 1000 c0 -5 5 -10 11 -10 5 0 7 5 4 10 -3 6 -8 10 -11 10 -2 0
-4 -4 -4 -10z"/>
<path d="M2660 1000 c0 -5 5 -10 10 -10 6 0 10 5 10 10 0 6 -4 10 -10 10 -5 0
-10 -4 -10 -10z"/>
<path d="M2710 994 c0 -8 5 -12 10 -9 6 3 10 10 10 16 0 5 -4 9 -10 9 -5 0
-10 -7 -10 -16z"/>
<path d="M2741 994 c0 -11 3 -14 6 -6 3 7 2 16 -1 19 -3 4 -6 -2 -5 -13z"/>
<path d="M480 970 c-9 -6 -10 -10 -3 -10 6 0 14 -17 16 -37 3 -35 4 -34 5 10
1 26 1 47 0 47 -2 0 -10 -5 -18 -10z"/>
<path d="M534 966 c-10 -27 1 -71 18 -74 24 -5 42 42 28 69 -12 22 -38 25 -46
5z m38 -13 c6 -28 -3 -53 -18 -53 -9 0 -14 12 -14 35 0 37 25 51 32 18z"/>
<path d="M614 966 c-10 -27 1 -71 18 -74 24 -5 42 42 28 69 -12 22 -38 25 -46
5z m39 -10 c8 -21 -4 -56 -19 -56 -9 0 -14 12 -14 35 0 36 22 50 33 21z"/>
<path d="M2070 958 c0 -8 7 -15 15 -15 18 0 15 19 -3 25 -7 2 -12 -3 -12 -10z"/>
<path d="M2077 923 c-11 -11 -8 -93 4 -93 5 0 7 4 4 10 -3 6 1 7 9 4 12 -5 16
0 16 20 0 18 -4 24 -15 20 -10 -4 -15 0 -15 11 0 9 5 13 10 10 6 -3 10 1 10 9
0 17 -12 21 -23 9z"/>
<path d="M2070 758 c0 -23 3 -38 6 -35 10 9 11 77 2 77 -5 0 -8 -19 -8 -42z"/>
<path d="M2090 764 c0 -8 5 -12 10 -9 6 3 10 10 10 16 0 5 -4 9 -10 9 -5 0
-10 -7 -10 -16z"/>
<path d="M730 615 c0 -33 4 -45 15 -45 18 0 20 21 3 38 -9 9 -9 12 0 12 7 0
12 9 12 20 0 11 -7 20 -15 20 -11 0 -15 -12 -15 -45z"/>
<path d="M2070 559 c0 -52 24 -48 28 4 2 28 -1 37 -12 37 -12 0 -16 -11 -16
-41z"/>
<path d="M732 500 l1 -40 524 0 c449 0 523 2 523 14 0 8 -4 18 -10 21 -5 3
-10 -2 -10 -12 0 -15 -2 -16 -10 -3 -9 13 -10 13 -10 0 0 -13 -1 -13 -10 0 -8
12 -11 13 -19 1 -7 -11 -9 -11 -14 0 -4 11 -6 11 -6 0 -1 -11 -5 -10 -16 5
-13 17 -14 17 -15 2 0 -10 -7 -18 -16 -18 -8 0 -13 4 -10 9 3 5 -1 11 -9 15
-9 3 -15 0 -15 -9 0 -8 -5 -15 -11 -15 -5 0 -8 4 -4 9 3 6 -4 9 -15 8 -11 -1
-20 -5 -20 -10 0 -5 -10 -7 -22 -5 -13 2 -22 9 -20 16 1 6 -5 12 -13 12 -8 0
-15 -7 -15 -15 0 -8 -5 -15 -10 -15 -6 0 -9 5 -8 11 5 19 -20 21 -25 2 -4 -16
-5 -16 -6 2 -1 17 -3 18 -11 5 -6 -10 -10 -11 -10 -2 0 19 -20 14 -21 -5 0
-15 -2 -15 -8 2 l-8 20 -5 -20 c-5 -16 -6 -17 -7 -2 0 9 -5 17 -11 17 -5 0
-10 -8 -11 -17 0 -15 -2 -15 -8 2 l-8 20 -5 -20 c-5 -16 -6 -17 -7 -2 0 9 -5
17 -11 17 -5 0 -10 -8 -11 -17 0 -15 -2 -15 -8 2 l-8 20 -5 -20 c-5 -16 -6
-17 -7 -2 -1 21 -21 23 -21 2 0 -8 -9 -15 -20 -15 -13 0 -18 5 -14 15 4 8 1
15 -5 15 -6 0 -11 -6 -11 -12 0 -9 -3 -9 -9 1 -7 11 -10 10 -14 -5 -4 -16 -5
-17 -6 -1 -1 19 -21 24 -21 5 0 -10 -3 -9 -9 1 -7 11 -9 11 -14 0 -4 -10 -6
-10 -6 -1 -1 17 -21 15 -21 -3 0 -8 -7 -15 -15 -15 -8 0 -15 6 -15 14 0 21
-49 27 -60 7 -8 -13 -10 -14 -10 -1 -1 10 -4 9 -10 -5 -7 -17 -9 -17 -9 -2 -1
21 -17 23 -25 2 -7 -20 -26 -19 -26 1 0 10 -6 14 -15 10 -8 -3 -15 0 -16 7 -1
7 -5 1 -9 -13 -5 -16 -8 -19 -9 -8 -1 9 -6 20 -13 24 -8 5 -9 0 -6 -14 4 -12
2 -22 -3 -22 -5 0 -9 8 -10 18 0 11 -2 12 -6 4 -4 -10 -8 -9 -19 5 -13 17 -13
17 -14 -4 0 -24 -30 -33 -30 -10 -1 13 -34 57 -44 57 -3 0 -5 -18 -4 -40z m28
-20 c0 -5 -5 -10 -11 -10 -5 0 -7 5 -4 10 3 6 8 10 11 10 2 0 4 -4 4 -10z"/>
<path d="M617 483 c-4 -3 -7 -21 -7 -40 0 -52 46 -58 54 -7 6 37 -26 69 -47
47z m35 -26 c6 -30 -1 -47 -18 -47 -9 0 -14 11 -14 35 0 40 25 49 32 12z"/>
<path d="M1791 478 c-1 -18 15 -23 43 -12 23 9 20 24 -5 24 -11 0 -17 -4 -14
-10 3 -5 2 -10 -4 -10 -5 0 -12 6 -14 13 -3 7 -6 5 -6 -5z"/>
<path d="M1866 475 c-3 -9 0 -15 9 -15 9 0 12 6 9 15 -4 8 -7 15 -9 15 -2 0
-5 -7 -9 -15z"/>
<path d="M1970 475 c0 -8 2 -15 4 -15 2 0 11 -3 20 -6 12 -5 16 0 16 17 0 19
-2 21 -10 9 -6 -10 -10 -11 -10 -2 0 6 -4 12 -10 12 -5 0 -10 -7 -10 -15z"/>
<path d="M703 345 c-3 -9 -3 -19 1 -22 3 -4 6 1 6 10 0 19 26 23 32 5 3 -7 2
-23 0 -35 -5 -24 -28 -31 -35 -10 -2 7 -3 6 -3 -3 2 -26 39 -18 46 10 12 45
-31 86 -47 45z"/>
<path d="M1370 350 c-9 -6 -10 -10 -3 -10 6 0 14 -17 16 -37 3 -35 4 -34 5 10
1 26 1 47 0 47 -2 0 -10 -5 -18 -10z"/>
<path d="M1424 346 c-10 -27 1 -71 18 -74 22 -4 40 31 32 63 -7 27 -41 35 -50
11z m37 -6 c1 -5 2 -17 2 -25 0 -30 -3 -35 -18 -35 -10 0 -15 11 -15 35 0 24
5 35 15 35 8 0 16 -4 16 -10z"/>
<path d="M1494 346 c-10 -27 1 -71 18 -74 24 -5 42 42 28 69 -12 22 -38 25
-46 5z m38 -8 c8 -22 -4 -58 -18 -58 -9 0 -14 12 -14 35 0 34 23 51 32 23z"/>
<path d="M2086 351 c-4 -5 3 -7 14 -4 26 7 26 -18 0 -42 -27 -25 -25 -35 8
-34 26 1 26 1 4 8 l-24 6 21 19 c27 24 28 56 2 56 -11 0 -22 -4 -25 -9z"/>
<path d="M2154 346 c-10 -27 1 -71 18 -74 24 -5 40 31 28 62 -10 28 -37 35
-46 12z m38 -19 c6 -30 -1 -47 -18 -47 -9 0 -14 11 -14 35 0 40 25 49 32 12z"/>
<path d="M2224 346 c-3 -8 -4 -27 -2 -43 2 -20 9 -28 23 -28 22 0 37 41 23 68
-10 21 -37 23 -44 3z m38 -8 c8 -22 -4 -58 -18 -58 -9 0 -14 12 -14 35 0 34
23 51 32 23z"/>
<path d="M2806 351 c-3 -5 2 -7 12 -4 15 3 18 -2 19 -32 1 -32 -1 -36 -19 -31
-16 4 -18 2 -9 -7 15 -15 48 4 42 25 -2 7 -4 22 -5 33 -1 21 -30 33 -40 16z"/>
<path d="M2874 346 c-10 -27 1 -71 18 -74 24 -5 40 31 28 62 -10 28 -37 35
-46 12z m38 -19 c6 -30 -1 -47 -18 -47 -9 0 -14 11 -14 35 0 40 25 49 32 12z"/>
<path d="M2944 346 c-3 -8 -4 -27 -2 -43 2 -20 9 -28 23 -28 22 0 37 41 23 68
-10 21 -37 23 -44 3z m38 -8 c8 -22 -4 -58 -18 -58 -9 0 -14 12 -14 35 0 34
23 51 32 23z"/>
<path d="M3537 340 c-21 -30 -22 -50 -2 -50 8 0 15 -6 15 -12 1 -9 4 -8 10 2
4 9 5 31 1 50 l-7 34 -17 -24z m9 -37 c-11 -11 -17 4 -9 23 7 18 8 18 11 1 2
-10 1 -21 -2 -24z"/>
<path d="M3594 346 c-10 -27 1 -71 18 -74 24 -5 40 31 28 62 -10 28 -37 35
-46 12z m38 -19 c6 -30 -1 -47 -18 -47 -9 0 -14 11 -14 35 0 40 25 49 32 12z"/>
<path d="M3664 346 c-3 -8 -4 -27 -2 -43 2 -20 9 -28 23 -28 22 0 37 41 23 68
-10 21 -37 23 -44 3z m38 -8 c8 -22 -4 -58 -18 -58 -9 0 -14 12 -14 35 0 34
23 51 32 23z"/>
<path d="M4257 353 c-14 -13 -7 -43 8 -37 20 8 35 -4 28 -22 -3 -9 -13 -14
-24 -11 -11 3 -17 1 -13 -4 9 -15 33 -10 42 9 13 23 4 42 -19 42 -26 0 -24 18
4 23 20 4 20 4 1 6 -11 0 -24 -2 -27 -6z"/>
<path d="M4324 346 c-10 -27 1 -71 18 -74 25 -5 43 35 29 64 -12 26 -39 32
-47 10z m37 -6 c1 -5 2 -17 2 -25 0 -30 -3 -35 -18 -35 -10 0 -15 11 -15 35 0
24 5 35 15 35 8 0 16 -4 16 -10z"/>
<path d="M4394 346 c-10 -27 1 -71 18 -74 25 -5 43 35 29 64 -12 26 -39 32
-47 10z m37 -6 c1 -5 2 -17 2 -25 0 -30 -3 -35 -18 -35 -10 0 -15 11 -15 35 0
24 5 35 15 35 8 0 16 -4 16 -10z"/>
<path d="M4977 353 c-4 -3 -7 -21 -7 -40 0 -37 21 -53 45 -33 17 14 3 50 -20
50 -8 0 -15 5 -15 11 0 6 9 9 20 6 11 -3 20 -1 20 4 0 10 -33 12 -43 2z m36
-47 c7 -16 -1 -26 -20 -26 -7 0 -13 9 -13 20 0 23 25 27 33 6z"/>
<path d="M5044 346 c-10 -27 1 -71 18 -74 25 -5 43 35 29 64 -12 26 -39 32
-47 10z m37 -6 c1 -5 2 -17 2 -25 0 -30 -3 -35 -18 -35 -10 0 -15 11 -15 35 0
24 5 35 15 35 8 0 16 -4 16 -10z"/>
<path d="M5114 346 c-10 -27 1 -71 18 -74 25 -5 43 35 29 64 -12 26 -39 32
-47 10z m37 -6 c1 -5 2 -17 2 -25 0 -30 -3 -35 -18 -35 -10 0 -15 11 -15 35 0
24 5 35 15 35 8 0 16 -4 16 -10z"/>
</g>
</svg>
